<svg width="364" height="162" viewBox="0 0 364 162" fill="none" xmlns="http://www.w3.org/2000/svg">
<path fill-rule="evenodd" clip-rule="evenodd" d="M69.8171 101.066C68.5841 101.756 67.2237 102.298 65.7271 102.706C64.2318 103.108 62.609 103.369 60.8833 103.372C59.5572 103.37 58.1648 103.215 56.7479 102.786C55.6877 102.463 54.6117 101.98 53.6017 101.287C52.0819 100.259 50.7496 98.7229 49.9162 96.895C49.0705 95.0659 48.6918 93.0087 48.693 90.8106C48.693 89.9917 48.7444 89.1495 48.8449 88.279C49.2188 85.0622 50.0143 82.2229 51.1823 79.7673C52.9227 76.0822 55.5468 73.3042 58.4896 71.5695C61.4324 69.8237 64.6204 69.0894 67.5975 69.0894C68.1478 69.0894 68.692 69.1139 69.23 69.163C71.0011 69.326 73.092 69.7011 75.3239 70.4428C76.9957 71.0006 78.746 71.7668 80.4619 72.8285C83.0309 74.4137 85.5373 76.7074 87.3537 79.8446C89.1775 82.9744 90.2426 86.8827 90.2341 91.3794C90.2341 92.2977 90.1911 93.2429 90.1041 94.2151V94.2138C89.7119 98.6223 88.5598 102.703 86.7201 106.32C83.9673 111.751 79.6616 116.085 74.406 119.001C69.1467 121.929 62.967 123.481 56.3019 123.644C56.0923 123.649 55.8827 123.651 55.6731 123.651C51.4103 123.645 46.9869 122.634 42.6419 120.89C36.1374 118.259 29.7861 113.958 24.87 108.266C22.4187 105.418 20.3314 102.209 18.8459 98.6713C17.3604 95.1382 16.4865 91.2642 16.4865 87.199C16.4865 85.5329 16.6434 83.6156 16.9669 81.4542C17.5344 77.6808 18.6216 73.1852 20.4233 68.4715C23.1295 61.4162 27.4389 53.8313 34.2045 47.8573C37.5836 44.8783 41.5842 42.3246 46.2208 40.5372C50.8562 38.7473 56.1131 37.731 61.9435 37.7335C64.2539 37.7335 66.6562 37.8916 69.1492 38.219L68.5106 43.081L63.679 42.2511C63.7526 41.871 65.0175 34.5583 70.1223 25.9767C72.6766 21.6921 76.2101 17.0911 81.06 12.9817C85.9038 8.87238 92.075 5.27546 99.7279 3.02831C105.383 1.36348 110.689 0.66592 115.556 0.66592C126.171 0.664694 134.612 3.97352 140.391 7.38041C143.288 9.08692 145.533 10.8167 147.125 12.2204C147.922 12.9253 148.553 13.5432 149.045 14.0728C149.293 14.3401 149.504 14.5804 149.716 14.8464C149.824 14.9837 149.931 15.1222 150.068 15.327C150.137 15.4299 150.214 15.5501 150.312 15.7266C150.41 15.9105 150.534 16.1263 150.693 16.5921L146.043 18.1442L141.948 15.4483C142.202 15.0671 144.763 11.2642 150.318 7.4797C153.092 5.59175 156.617 3.71851 160.928 2.32461C165.239 0.929494 170.334 0.0223083 176.204 0.0223083C179.079 0.0223083 182.14 0.239302 185.386 0.717419C192.44 1.75947 199.344 3.07245 205.879 5.12468C210.78 6.66446 215.476 8.62351 219.833 11.2213C226.366 15.1063 232.117 20.4869 236.391 27.7408C240.676 34.9935 243.486 44.0189 244.617 55.1909C244.82 57.1818 244.918 59.109 244.918 60.9724C244.924 68.6762 243.213 75.3233 240.275 80.8106C238.077 84.9285 235.209 88.3771 231.987 91.1894C227.146 95.4128 221.535 98.2226 215.964 99.999C210.386 101.773 204.838 102.523 199.934 102.526C196.688 102.523 193.731 102.202 191.134 101.544C183.802 99.6607 176.508 95.8223 170.786 90.2957C167.933 87.5288 165.481 84.3217 163.722 80.688C161.963 77.0617 160.916 72.994 160.919 68.6848C160.919 67.4282 161.007 66.1545 161.187 64.8697C162.427 56.1606 166.874 48.0767 173.125 41.9985C176.259 38.9631 179.866 36.4291 183.827 34.6319C187.784 32.8371 192.109 31.7852 196.589 31.7852C197.413 31.7852 198.241 31.8208 199.073 31.8931C202.914 32.2315 206.474 32.8199 209.728 33.7357C212.167 34.4247 214.438 35.2975 216.512 36.4168C219.615 38.0878 222.312 40.3619 224.188 43.3127C226.074 46.255 227.034 49.7943 227.022 53.5273C227.022 54.6257 226.943 55.745 226.791 56.8851C226.457 59.3946 225.529 61.6933 224.254 63.667C222.332 66.6338 219.667 68.9178 216.703 70.5188C213.732 72.1113 210.434 73.0467 207.046 73.0553C205.271 73.0553 203.466 72.788 201.718 72.1665C199.099 71.2483 196.618 69.4437 194.915 66.8803C193.196 64.3205 192.267 61.1428 192.103 57.5606C191.977 54.855 194.066 52.5588 196.771 52.4325C199.477 52.3062 201.771 54.3965 201.898 57.1009C201.967 58.5683 202.227 59.6533 202.546 60.4355C202.785 61.0239 203.053 61.4481 203.332 61.7816C203.754 62.2756 204.205 62.5968 204.804 62.8493C205.4 63.0958 206.156 63.2478 207.046 63.2478C208.047 63.2502 209.205 63.048 210.354 62.6385C212.085 62.0317 213.775 60.9504 214.972 59.6717C215.575 59.0342 216.06 58.3538 216.409 57.6685C216.758 56.982 216.978 56.293 217.072 55.5869C217.171 54.844 217.217 54.1599 217.217 53.5273C217.209 51.6087 216.824 50.216 216.178 49.0232C215.687 48.1282 215.023 47.3191 214.089 46.5382C212.698 45.3711 210.665 44.2923 207.983 43.4488C205.307 42.6017 202.007 41.9949 198.217 41.6638C197.674 41.616 197.131 41.5927 196.589 41.5927C193.65 41.5927 190.709 42.2805 187.875 43.5653C183.628 45.4839 179.656 48.7719 176.635 52.8027C173.605 56.8287 171.546 61.5658 170.898 66.2317C170.78 67.0703 170.724 67.8867 170.724 68.6848C170.728 71.4187 171.367 73.9711 172.548 76.4156C174.309 80.0726 177.352 83.4611 181.11 86.1864C184.857 88.9141 189.289 90.9565 193.554 92.0402C195.123 92.4436 197.368 92.7219 199.934 92.7182C203.391 92.7206 207.443 92.2315 211.477 91.1048C214.504 90.2626 217.523 89.0661 220.311 87.4846C224.502 85.1051 228.153 81.898 230.786 77.6501C233.411 73.3924 235.101 68.0412 235.112 60.9724C235.112 59.4547 235.031 57.8585 234.862 56.1814C233.95 47.2063 231.896 40.2271 229.053 34.7287C226.916 30.601 224.34 27.2848 221.352 24.5105C216.876 20.3594 211.416 17.4037 205.08 15.1896C198.755 12.978 191.587 11.5425 183.956 10.4207C181.165 10.0088 178.585 9.82984 176.204 9.82984C171.342 9.83107 167.301 10.574 163.944 11.6577C158.916 13.2833 155.401 15.6923 153.152 17.655C152.028 18.6358 151.227 19.5025 150.731 20.091C150.482 20.384 150.311 20.6071 150.213 20.7395L150.121 20.867L150.115 20.8743L148.415 19.7048L150.138 20.84L150.115 20.8743L148.415 19.7048L150.138 20.84C149.107 22.408 147.267 23.2502 145.407 23.0063C143.546 22.7623 141.986 21.4751 141.392 19.695L145.819 18.219L141.737 20.482C141.656 20.33 141.546 20.1412 141.392 19.695L145.819 18.219L141.737 20.482L145.018 18.6627L141.997 20.8927C141.958 20.8351 141.894 20.7591 141.737 20.482L145.018 18.6627L141.997 20.8927L143.396 19.8605L142.031 20.9369L141.997 20.8927L143.396 19.8605L142.031 20.9369L142.034 20.9356L142.031 20.9369L142.034 20.9356L142.031 20.9369C141.988 20.8841 141.727 20.5911 141.339 20.2197C139.959 18.8859 136.907 16.3886 132.541 14.2996C128.162 12.2033 122.477 10.4759 115.556 10.4735C111.622 10.4747 107.274 11.0313 102.494 12.4374C96.1772 14.2996 91.2856 17.1757 87.3979 20.4649C81.5772 25.3919 78.0204 31.3243 75.9442 36.0417C74.9073 38.3955 74.2417 40.4342 73.8446 41.849C73.6461 42.5563 73.5149 43.108 73.4353 43.4648C73.3961 43.6425 73.3703 43.7725 73.3543 43.8485L73.3409 43.922L73.3397 43.9269L70.4937 43.4219L73.3421 43.911L73.3397 43.9269L70.4937 43.4219L73.3421 43.911C72.8971 46.5063 70.4827 48.2864 67.872 47.9431C65.7811 47.6685 63.8077 47.541 61.9435 47.541C54.7759 47.5533 49.2335 49.3812 44.6703 52.2339C41.2557 54.3793 38.395 57.1426 36.0074 60.2553C32.4285 64.9175 29.9515 70.3766 28.4158 75.349C27.6461 77.8328 27.1092 80.1915 26.7685 82.2401C26.4278 84.2837 26.2892 86.0331 26.2917 87.199C26.2941 90.7444 27.2894 94.1108 29.0727 97.2971C31.7336 102.065 36.2452 106.324 41.2422 109.279C43.7339 110.76 46.3348 111.919 48.8217 112.691C51.3073 113.466 53.679 113.847 55.6731 113.844C55.8055 113.844 55.9341 113.842 56.0616 113.84C59.5939 113.753 62.8174 113.178 65.6597 112.197C69.9286 110.72 73.3249 108.365 75.8056 105.26C78.2778 102.146 79.892 98.2398 80.3381 93.3422V93.3397C80.4006 92.6458 80.4288 91.9936 80.4288 91.3794C80.4239 88.7008 79.9006 86.7895 79.1627 85.3049C78.6038 84.1905 77.9077 83.298 77.0902 82.5294C75.8682 81.3807 74.3386 80.5213 72.7526 79.9341C71.1752 79.3444 69.5536 79.0391 68.3402 78.93C68.0987 78.9079 67.8512 78.8969 67.5975 78.8969C66.6832 78.8969 65.7283 79.049 64.8214 79.3775C63.4584 79.8777 62.1997 80.7162 61.0843 82.2143C59.98 83.7149 58.9909 85.962 58.5852 89.4106C58.5239 89.9402 58.4982 90.4073 58.4982 90.8106C58.4982 91.7779 58.6465 92.3602 58.7691 92.6704C58.8647 92.907 58.9394 93.0026 59.0007 93.0725C59.0914 93.1693 59.1895 93.2539 59.4935 93.3667C59.7888 93.4746 60.2803 93.5653 60.8833 93.5641C61.5783 93.5653 62.4093 93.4452 63.168 93.238C63.9254 93.0357 64.6215 92.7402 65.0113 92.5171C67.3707 91.1894 70.3601 92.0267 71.6875 94.3879C73.0148 96.7478 72.1777 99.7379 69.8171 101.066Z" fill="#F9DAB6"/>
<path fill-rule="evenodd" clip-rule="evenodd" d="M71.5504 33.3189L73.0984 30.6328L71.5638 33.3262L71.5504 33.3189L73.0984 30.6328L71.5638 33.3262L71.5467 33.3164C71.3175 33.1877 68.8956 31.8649 65.0053 30.5936C61.1151 29.3199 55.7676 28.1049 49.6675 28.1074C44.9708 28.1086 39.8317 28.8172 34.4645 30.7616C31.4617 31.8478 28.3718 33.6793 25.4584 36.1324C21.0841 39.8041 17.1252 44.8623 14.3185 50.6046C11.5031 56.3482 9.83745 62.755 9.84113 69.147C9.84236 73.6254 10.6452 78.0976 12.4371 82.4424C14.2327 86.7859 17.0161 91.019 21.1037 95.0119C22.3575 96.2354 22.8637 98.0424 22.4286 99.7391L19.3939 98.9607L22.4335 99.722L22.4286 99.7391L19.3939 98.9607L22.4335 99.722L22.4286 99.7416C22.3624 100.013 21.719 102.854 21.7202 106.946C21.7202 109.869 22.0462 113.423 23.0954 117.159C23.8835 119.964 25.0723 122.87 26.8409 125.74C29.5006 130.042 33.4448 134.289 39.5314 138.007C45.6167 141.718 53.8838 144.883 65.1145 146.756C69.528 147.492 73.5224 147.803 77.1271 147.803C88.7414 147.791 96.3453 144.612 101.127 141.582C103.512 140.062 105.181 138.565 106.222 137.493C106.743 136.958 107.105 136.53 107.32 136.261C107.428 136.126 107.499 136.033 107.533 135.985L107.559 135.949L109.541 137.341L107.533 135.988L107.559 135.949L109.541 137.341L107.533 135.988C108.412 134.683 109.853 133.883 111.426 133.826C112.998 133.771 114.492 134.468 115.462 135.707L113.437 137.29L115.451 135.694L115.462 135.707L113.437 137.29L115.451 135.694C115.451 135.694 115.497 135.752 115.595 135.869C116.328 136.745 119.852 140.711 125.761 144.372C131.686 148.04 139.905 151.411 150.377 151.415C153.178 151.415 156.146 151.174 159.29 150.622C166.825 149.303 172.927 147.589 177.822 145.551C181.496 144.023 184.489 142.319 186.953 140.464C190.643 137.672 193.178 134.569 195.089 130.903C196.99 127.239 198.236 122.962 199.032 117.974C199.205 116.889 199.279 115.896 199.281 114.985C199.276 112.784 198.853 111.061 198.181 109.556C197.674 108.43 197.012 107.422 196.214 106.49C195.02 105.095 193.509 103.877 191.878 102.837C190.249 101.796 188.514 100.941 186.919 100.22C186.648 100.095 186.127 99.9243 185.455 99.8054C184.784 99.684 183.961 99.6092 183.06 99.6092C181.472 99.608 179.643 99.8433 177.873 100.357C175.204 101.127 172.724 102.506 170.986 104.442C170.11 105.415 169.394 106.53 168.861 107.881C168.332 109.232 167.982 110.83 167.932 112.797C167.927 112.994 167.925 113.189 167.925 113.379C167.926 115.798 168.312 117.548 168.823 118.823C169.209 119.781 169.665 120.483 170.151 121.042C170.879 121.874 171.703 122.407 172.547 122.755C173.38 123.102 174.242 123.229 174.752 123.225L174.949 123.218C175.9 123.16 176.843 123.03 177.65 122.838C178.257 122.696 178.785 122.518 179.184 122.338C179.793 122.068 180.059 121.805 180.091 121.755L180.103 121.739L180.181 121.783L180.098 121.75L180.103 121.739L180.181 121.783L180.098 121.75L180.142 121.767L180.095 121.753L180.098 121.75L180.142 121.767L180.095 121.753C180.095 121.752 180.106 121.723 180.108 121.612C180.108 121.531 180.1 121.414 180.071 121.248V121.246C179.871 120.095 179.517 119.641 179.494 119.629L179.492 119.628L179.963 119.147L179.708 119.758C179.579 119.705 179.496 119.634 179.492 119.628L179.963 119.147L179.708 119.758L180.113 118.788V119.841C180 119.842 179.836 119.813 179.708 119.758L180.113 118.788V119.841V119.164L180.244 119.83L180.113 119.841V119.164L180.244 119.83L180.212 119.667L180.265 119.825L180.244 119.83L180.212 119.667L180.265 119.825C180.252 119.829 180.125 119.878 179.92 120.041C177.806 121.733 174.721 121.389 173.03 119.275C171.338 117.16 171.681 114.074 173.796 112.382C174.672 111.681 175.643 111.1 176.704 110.686C177.764 110.274 178.923 110.032 180.113 110.033C181.327 110.031 182.57 110.29 183.701 110.8C185.409 111.563 186.808 112.865 187.788 114.383C188.776 115.908 189.391 117.646 189.727 119.542V119.539C189.848 120.228 189.913 120.922 189.913 121.612C189.929 123.649 189.294 125.691 188.204 127.263C187.395 128.451 186.388 129.378 185.342 130.093C183.766 131.166 182.102 131.805 180.453 132.245C178.804 132.68 177.151 132.906 175.558 133.008C175.291 133.023 175.024 133.032 174.752 133.032C173.135 133.028 171.371 132.754 169.523 132.097C168.14 131.601 166.717 130.883 165.356 129.88C163.313 128.382 161.43 126.217 160.136 123.427C158.833 120.639 158.117 117.279 158.119 113.379C158.119 113.107 158.123 112.831 158.131 112.553C158.225 108.536 159.198 104.937 160.836 101.927C162.06 99.6693 163.641 97.7531 165.406 96.1864C168.058 93.8338 171.098 92.256 174.134 91.2507C177.177 90.2467 180.227 89.8054 183.06 89.8017C184.492 89.8029 185.869 89.9169 187.185 90.1511C188.501 90.3889 189.752 90.7408 190.957 91.2826C194.171 92.7489 198.521 94.9053 202.286 98.6309C204.162 100.496 205.886 102.779 207.122 105.53C208.363 108.275 209.09 111.471 209.085 114.985C209.085 116.443 208.963 117.954 208.714 119.518C207.907 124.573 206.647 129.344 204.598 133.776C203.064 137.096 201.08 140.216 198.569 143.044C194.802 147.295 189.879 150.847 183.696 153.684C177.508 156.526 170.052 158.691 160.983 160.282C157.285 160.931 153.744 161.223 150.377 161.223C143.544 161.223 137.438 160.017 132.169 158.209C124.257 155.494 118.228 151.449 114.144 148.072C110.058 144.69 107.904 141.959 107.737 141.747L111.599 138.728L115.665 141.467C115.386 141.878 112.598 145.897 106.394 149.853C100.205 153.813 90.5725 157.624 77.1271 157.611C72.9562 157.611 68.4201 157.251 63.5027 156.43C52.6385 154.618 43.9241 151.628 36.9575 147.839C31.735 144.998 27.5028 141.706 24.1335 138.175C19.0728 132.881 15.9829 127.073 14.2045 121.616C12.4199 116.153 11.9162 111.042 11.915 106.946C11.9186 101.328 12.8599 97.5913 12.931 97.3044L17.6792 98.5218L14.2559 102.032C9.26752 97.1671 5.68007 91.7803 3.37338 86.1851C1.06303 80.5899 0.0334625 74.8047 0.0359039 69.147C0.0457153 58.3563 3.71408 48.0571 9.33737 39.6545C12.1564 35.452 15.4754 31.7141 19.1487 28.6247C22.822 25.5378 26.852 23.0909 31.1246 21.54C37.6684 19.1678 43.9817 18.2999 49.6675 18.2999C57.4247 18.3023 64.0199 19.8985 68.7191 21.4934C73.4183 23.0933 76.2336 24.6993 76.4468 24.8219C78.7927 26.1741 79.598 29.1727 78.2461 31.5192C76.8942 33.8657 73.8963 34.6711 71.5504 33.3189Z" fill="#F9DAB6"/>
<path fill-rule="evenodd" clip-rule="evenodd" d="M236.354 50.4306C236.549 50.2663 239.923 47.3461 245.456 44.3867C248.223 42.9094 251.535 41.4211 255.279 40.2908C259.022 39.1617 263.205 38.3882 267.68 38.3882C272.15 38.3857 276.917 39.1715 281.693 41.122C286.471 43.0688 291.235 46.1717 295.753 50.6488C299.466 54.3217 302.041 58.2778 303.659 62.1972C305.281 66.1177 305.949 69.9856 305.949 73.5077C305.948 76.0552 305.603 78.425 305.005 80.5507C304.402 82.6777 303.561 84.5608 302.451 86.1827L302.452 86.1802C301.442 87.6501 300.313 89.0048 298.959 90.1768C297.945 91.0534 296.809 91.8147 295.585 92.4215C293.741 93.3373 291.737 93.8963 289.586 94.2261C287.429 94.5571 285.101 94.6736 282.432 94.6748C281.957 94.6748 281.473 94.6711 280.976 94.6638C278.44 94.6331 276.056 93.9392 274.07 92.8052C272.574 91.9581 271.296 90.8817 270.227 89.6938C268.623 87.9076 267.474 85.8762 266.686 83.7933C265.902 81.7056 265.472 79.5602 265.405 77.4381C265.399 77.2088 265.396 76.982 265.396 76.7577C265.397 74.8231 265.646 72.9903 266.273 71.2618C266.743 69.9708 267.441 68.7474 268.351 67.7102C269.715 66.1423 271.507 65.0818 273.301 64.497C275.108 63.9024 276.938 63.7063 278.797 63.7038C280.086 63.7038 281.346 63.8436 282.566 64.1317C284.388 64.5743 286.152 65.3184 287.712 66.6902C288.486 67.378 289.2 68.2435 289.72 69.2978C290.242 70.3448 290.544 71.5805 290.54 72.8089C290.541 74.3585 290.087 75.8357 289.393 77.1058C288.695 78.3845 287.768 79.5013 286.652 80.5495C284.676 82.4019 281.574 82.3014 279.722 80.3251C277.87 78.3502 277.971 75.2461 279.947 73.3937C280.477 72.8984 280.719 72.5368 280.778 72.4227L280.797 72.3835L281.833 72.8089H280.735C280.734 72.5564 280.794 72.3884 280.797 72.3835L281.833 72.8089H280.735H282.545L281.042 73.835C280.889 73.6339 280.722 73.1718 280.735 72.8089H282.545L281.042 73.835L281.944 73.2184L281.171 73.9944L281.042 73.835L281.944 73.2184L281.171 73.9944L281.507 73.6573L281.197 74.0189L281.171 73.9944L281.507 73.6573L281.197 74.0189L281.221 73.9895L281.199 74.0201L281.197 74.0189L281.221 73.9895L281.199 74.0201C281.178 73.9993 280.919 73.8399 280.483 73.721C280.051 73.5984 279.454 73.5102 278.797 73.5114C277.794 73.5089 277.031 73.618 276.553 73.7554C276.19 73.8571 275.991 73.965 275.882 74.0385C275.728 74.1599 275.694 74.166 275.534 74.4995C275.39 74.8256 275.2 75.5427 275.201 76.7577C275.201 76.8839 275.203 77.0139 275.207 77.1475C275.23 77.9934 275.404 79.0024 275.732 79.9697C276.217 81.4322 277.048 82.7648 277.964 83.5862C278.423 84.0017 278.894 84.3046 279.395 84.513C279.899 84.7202 280.437 84.8452 281.12 84.8575C281.574 84.8648 282.012 84.8672 282.432 84.8685C284.537 84.8685 286.248 84.779 287.603 84.6025C288.621 84.4713 289.436 84.2935 290.091 84.0863C291.078 83.77 291.707 83.4243 292.338 82.9303C292.962 82.4325 293.611 81.7301 294.371 80.6255L294.373 80.6231C294.748 80.0861 295.224 79.1213 295.568 77.8904C295.914 76.6584 296.144 75.1602 296.144 73.5077C296.142 71.2176 295.712 68.6395 294.599 65.9461C293.483 63.2515 291.686 60.4257 288.855 57.6195C285.159 53.9637 281.517 51.6455 277.991 50.2038C274.461 48.767 271.021 48.1981 267.68 48.1957C264.343 48.1945 261.105 48.7768 258.112 49.6803C253.625 51.0313 249.705 53.1142 246.959 54.8501C245.587 55.7168 244.506 56.4941 243.786 57.0396C243.427 57.313 243.157 57.5276 242.988 57.6661L242.808 57.8156L242.775 57.8426L242.774 57.8438L240.787 55.5378L242.782 57.8365L242.774 57.8438L240.787 55.5378L242.782 57.8365C240.738 59.6129 237.641 59.3934 235.866 57.3486C234.091 55.3037 234.309 52.2057 236.354 50.4306Z" fill="#F9DAB6"/>
<path fill-rule="evenodd" clip-rule="evenodd" d="M300.685 68.8638C300.79 68.8564 301.79 68.7853 303.476 68.7853C308.253 68.7939 318.549 69.3248 329.662 73.6523C335.213 75.821 340.971 78.9594 346.244 83.504C351.515 88.0412 356.279 93.9968 359.785 101.615C362.442 107.378 363.642 112.956 363.639 118.115C363.639 122.388 362.818 126.359 361.398 129.881C359.264 135.168 355.817 139.436 351.79 142.426C347.759 145.405 343.119 147.179 338.386 147.194C336.476 147.195 334.551 146.891 332.709 146.223C329.945 145.233 327.4 143.375 325.528 140.818C323.643 138.262 322.419 135.081 321.865 131.424C321.559 129.403 322.543 127.396 324.329 126.402C326.114 125.408 328.337 125.629 329.892 126.954L328.893 128.127L329.885 126.948L329.892 126.954L328.893 128.127L329.885 126.948C329.922 126.982 331.206 128.045 332.807 128.996C333.602 129.473 334.476 129.918 335.242 130.205C336.006 130.499 336.654 130.608 336.915 130.6L337.044 130.592L337.057 130.591L337.083 130.717L337.044 130.595L337.057 130.591L337.083 130.717L337.044 130.595L337.211 131.123L336.869 130.689L337.044 130.595L337.211 131.123L336.869 130.689L337.723 131.778L336.749 130.795L336.867 130.689L337.723 131.778L336.749 130.795L337.092 131.142L336.717 130.827L336.749 130.795L337.092 131.142L336.717 130.827C336.72 130.827 336.844 130.661 336.983 130.368C337.195 129.929 337.442 129.213 337.615 128.353C337.79 127.492 337.898 126.484 337.897 125.429C337.898 124.026 337.708 122.54 337.296 121.15C336.989 120.106 336.559 119.115 336.003 118.217C335.165 116.868 334.072 115.721 332.511 114.786C330.949 113.86 328.87 113.129 325.97 112.876C324.915 112.784 323.916 112.741 322.969 112.741C319.945 112.744 317.455 113.171 315.22 113.904C313.265 114.55 311.49 115.439 309.741 116.576C306.687 118.557 303.725 121.349 300.441 124.688C295.511 129.683 289.881 135.864 281.842 141.584C273.804 147.311 263.364 152.5 249.006 155.734C244.538 156.742 239.593 157.228 234.489 157.231C226.322 157.224 217.763 155.988 210.237 153.304C206.474 151.957 202.961 150.242 199.896 148.04C196.839 145.842 194.203 143.128 192.425 139.788C191.154 137.398 192.063 134.428 194.453 133.157C196.844 131.886 199.812 132.793 201.083 135.185C201.985 136.886 203.492 138.548 205.618 140.076C208.794 142.372 213.323 144.278 218.409 145.529C223.494 146.791 229.125 147.425 234.489 147.423C238.956 147.425 243.243 146.983 246.847 146.168C258.328 143.569 266.674 139.762 273.312 135.515C278.29 132.323 282.315 128.868 285.944 125.38C288.665 122.765 291.16 120.131 293.666 117.593C297.422 113.798 301.213 110.168 305.931 107.406C308.284 106.032 310.866 104.895 313.704 104.122C316.541 103.346 319.624 102.934 322.969 102.934C324.211 102.934 325.492 102.99 326.812 103.104C330.503 103.421 333.757 104.349 336.516 105.794C340.669 107.953 343.586 111.279 345.308 114.801C347.046 118.335 347.699 122.038 347.702 125.429C347.699 128.02 347.325 130.439 346.622 132.601C346.267 133.682 345.831 134.703 345.257 135.671C344.677 136.636 343.974 137.569 342.927 138.402C342.007 139.126 340.965 139.651 339.93 139.967C338.895 140.286 337.871 140.407 336.915 140.407C334.91 140.399 333.179 139.914 331.636 139.326C329.33 138.429 327.403 137.233 325.968 136.254C324.54 135.273 323.628 134.499 323.534 134.42L326.713 130.687L331.56 129.951C331.803 131.547 332.206 132.797 332.674 133.757C333.388 135.196 334.195 135.998 335.091 136.547C335.991 137.085 337.06 137.383 338.386 137.387C339.832 137.39 341.56 136.997 343.32 136.147C345.965 134.878 348.64 132.598 350.595 129.533C352.553 126.462 353.83 122.643 353.834 118.115C353.832 114.47 353.002 110.332 350.879 105.72C347.961 99.3946 344.127 94.6319 339.843 90.9332C333.427 85.3981 325.909 82.2805 319.153 80.5765C312.408 78.8687 306.476 78.5904 303.476 78.5929C302.771 78.5929 302.227 78.6076 301.873 78.6211C301.696 78.6284 301.566 78.6358 301.488 78.6395L301.408 78.6444C298.708 78.8442 296.356 76.8165 296.157 74.1157C295.958 71.415 297.985 69.0636 300.685 68.8638Z" fill="#F9DAB6"/>
</svg>
