<svg width="471" height="207" viewBox="0 0 471 207" fill="none" xmlns="http://www.w3.org/2000/svg">
<path fill-rule="evenodd" clip-rule="evenodd" d="M386.983 86.763C387.616 86.4026 388.621 85.9809 389.72 85.6867C390.818 85.3875 392.018 85.2098 393.077 85.2123C393.894 85.2111 394.621 85.3153 395.177 85.4869C395.598 85.6144 395.921 85.7737 396.176 85.9478C396.555 86.22 396.821 86.4909 397.109 87.0916C397.387 87.6911 397.657 88.6841 397.658 90.2705C397.658 90.8577 397.62 91.5221 397.534 92.2638C397.17 95.39 396.435 97.8566 395.513 99.7948C394.121 102.699 392.352 104.455 390.434 105.607C388.516 106.748 386.374 107.253 384.34 107.252C383.966 107.252 383.599 107.236 383.242 107.203H383.24C381.733 107.067 379.804 106.721 377.852 106.069C376.386 105.581 374.904 104.923 373.539 104.076C371.484 102.798 369.706 101.14 368.391 98.8791C367.085 96.6111 366.175 93.6774 366.166 89.5288C366.166 88.6854 366.205 87.7916 366.29 86.8477C366.686 82.4269 367.809 78.5603 369.513 75.2061C372.076 70.1822 375.941 66.258 380.97 63.4482C385.994 60.6481 392.211 59.0029 399.316 58.8288H399.315C399.493 58.8239 399.674 58.8226 399.857 58.8214C403.562 58.8153 408.054 59.7617 412.6 61.5982C419.432 64.3394 426.362 69.0629 431.392 74.9229C433.914 77.8505 435.967 81.0502 437.378 84.4117C438.79 87.7782 439.567 91.2953 439.568 94.9707C439.569 96.4137 439.421 98.4291 439.068 100.772C438.453 104.879 437.217 110.013 435.19 115.309C432.152 123.268 427.329 131.553 420.338 137.697C416.838 140.777 412.805 143.344 408.097 145.162C403.387 146.978 397.99 148.053 391.699 148.055C389.206 148.055 386.573 147.885 383.791 147.519C381.18 147.176 378.766 148.955 378.321 151.552L379.749 151.797L378.322 151.541L378.321 151.552L379.749 151.797L378.322 151.541C378.303 151.694 376.755 160.02 371.101 169.298C368.276 173.943 364.443 178.826 359.284 183.144C354.119 187.462 347.637 191.233 339.345 193.676C332.994 195.543 327.193 196.29 321.934 196.29C310.492 196.289 301.522 192.748 295.339 189.113C292.256 187.298 289.883 185.46 288.319 184.078C287.538 183.391 286.957 182.812 286.616 182.444C286.447 182.264 286.337 182.132 286.322 182.112L285.796 182.53L286.336 182.13L286.322 182.112L285.796 182.53L286.336 182.13L283.93 183.912L286.474 182.337C286.393 182.208 286.355 182.157 286.336 182.13L283.93 183.912L286.474 182.337L282.905 184.544L286.637 182.626C286.566 182.489 286.515 182.404 286.474 182.337L282.905 184.544L286.637 182.626L282.509 184.749L286.912 183.279C286.798 182.944 286.707 182.765 286.637 182.626L282.509 184.749L286.912 183.279C286.317 181.499 284.757 180.212 282.897 179.969C281.036 179.726 279.198 180.568 278.166 182.135L280.861 183.91L278.181 182.112L278.166 182.135L280.861 183.91L278.181 182.112L278.213 182.133L278.181 182.111V182.112L278.213 182.133L278.181 182.111C278.102 182.232 275.463 186.031 269.821 189.734C266.997 191.588 263.423 193.429 258.999 194.813C254.573 196.195 249.292 197.127 243.014 197.128C239.839 197.128 236.411 196.889 232.71 196.344C223.843 195.038 215.418 193.409 207.779 191.007C202.046 189.206 196.76 186.975 192.018 184.147C184.904 179.892 178.998 174.353 174.408 166.603C169.829 158.85 166.566 148.788 165.215 135.484C164.989 133.254 164.882 131.126 164.882 129.098C164.888 120.709 166.694 114.039 169.591 108.602C171.77 104.526 174.586 101.129 177.846 98.2796C182.73 94.0096 188.644 90.9938 194.699 89.0678C200.745 87.1382 206.92 86.3095 212.136 86.3119C215.576 86.3082 218.606 86.6772 220.803 87.2412C228.456 89.1782 236.419 93.4064 242.21 99.0433C245.113 101.858 247.48 105.006 249.102 108.359C250.723 111.72 251.618 115.269 251.622 119.064C251.62 120.172 251.544 121.303 251.381 122.46C250.211 130.933 245.621 139.453 239.169 145.685C235.952 148.804 232.291 151.352 228.437 153.098C224.58 154.846 220.544 155.796 216.488 155.796C215.741 155.796 214.992 155.764 214.243 155.698C209.785 155.308 205.819 154.631 202.451 153.681C199.925 152.969 197.739 152.105 195.923 151.123C193.189 149.642 191.319 147.944 190.089 146.017C188.869 144.081 188.182 141.836 188.169 138.787C188.169 137.896 188.233 136.938 188.369 135.912C188.565 134.452 189.105 133.052 189.968 131.71C191.253 129.704 193.304 127.877 195.662 126.614C198.013 125.34 200.642 124.653 202.88 124.662C204.055 124.661 205.119 124.841 206.025 125.164C207.389 125.666 208.414 126.408 209.297 127.701C210.166 128.998 210.907 130.988 211.054 134.068C211.181 136.773 213.476 138.864 216.181 138.737C218.886 138.611 220.975 136.314 220.849 133.609C220.709 130.635 220.159 127.942 219.192 125.557C218.469 123.771 217.507 122.162 216.346 120.782C214.607 118.709 212.423 117.18 210.098 116.226C207.768 115.266 205.309 114.854 202.88 114.854C200.129 114.855 197.402 115.375 194.804 116.296C190.909 117.683 187.278 119.966 184.364 123.044C182.909 124.583 181.638 126.328 180.648 128.269C179.659 130.207 178.953 132.345 178.65 134.616C178.461 136.039 178.364 137.429 178.364 138.787C178.357 142.896 179.274 146.745 181.099 150.067C182.46 152.559 184.307 154.73 186.487 156.547C189.764 159.279 193.757 161.239 198.266 162.665C202.782 164.088 207.84 164.981 213.386 165.469C214.423 165.559 215.459 165.603 216.488 165.603C222.086 165.603 227.504 164.289 232.484 162.03C239.958 158.635 246.48 153.148 251.472 146.509C256.457 139.866 259.933 132.042 261.091 123.823C261.316 122.219 261.427 120.628 261.427 119.064C261.429 113.693 260.129 108.629 257.928 104.087C254.618 97.2645 249.353 91.5921 243.26 87.1603C237.156 82.7297 230.197 79.5202 223.223 77.7377C219.997 76.9187 216.257 76.5081 212.136 76.5044C206.598 76.5068 200.388 77.2645 194.088 79.0175C189.365 80.333 184.593 82.2111 180.056 84.7831C173.256 88.6326 166.962 94.0807 162.398 101.456C157.825 108.821 155.066 118.063 155.077 129.098C155.077 131.472 155.202 133.93 155.459 136.474C156.755 149.254 159.744 159.775 164.22 168.434C167.574 174.925 171.765 180.349 176.592 184.821C183.834 191.539 192.44 196.091 201.719 199.329C211.007 202.569 221.001 204.528 231.281 206.046C235.437 206.659 239.347 206.936 243.014 206.936C250.499 206.936 256.97 205.779 262.437 204.011C270.641 201.359 276.559 197.352 280.432 193.968C284.309 190.579 286.165 187.816 286.357 187.527L282.262 184.831L277.61 186.383C277.772 186.853 277.897 187.072 277.998 187.261C278.194 187.61 278.321 187.781 278.447 187.956C278.686 188.276 278.906 188.536 279.172 188.835C279.665 189.384 280.294 190.025 281.096 190.768C283.891 193.35 288.765 197.135 295.638 200.333C302.502 203.525 311.377 206.1 321.934 206.097C328.126 206.099 334.885 205.212 342.112 203.084C351.87 200.218 359.707 195.646 365.867 190.421C375.117 182.579 380.604 173.348 383.803 166.092C387.001 158.828 387.933 153.497 387.984 153.212L383.153 152.382L382.514 157.242C385.697 157.662 388.759 157.863 391.699 157.863C403.001 157.875 412.525 154.848 420.175 150.028C425.918 146.42 430.611 141.846 434.402 136.898C440.089 129.468 443.784 121.206 446.103 113.731C447.262 109.992 448.073 106.447 448.6 103.273C449.126 100.094 449.373 97.3025 449.373 94.9707C449.373 88.1949 447.432 81.863 444.309 76.307C439.61 67.962 432.336 61.261 424.397 56.535C420.421 54.1751 416.267 52.3129 412.122 51.0232C407.976 49.7372 403.838 49.0176 399.857 49.0151C399.597 49.0151 399.337 49.0175 399.077 49.0237H399.076C393.428 49.1622 388.082 50.0842 383.184 51.7735C375.842 54.3002 369.495 58.5873 364.839 64.435C360.174 70.2742 357.259 77.6298 356.524 85.9748C356.415 87.1959 356.361 88.3801 356.361 89.5288C356.356 94.5343 357.394 98.8839 359.201 102.486C360.55 105.188 362.316 107.451 364.273 109.282C367.213 112.035 370.545 113.831 373.704 115.005C376.871 116.178 379.875 116.742 382.352 116.97H382.35C383.007 117.03 383.67 117.06 384.34 117.06C386.767 117.06 389.294 116.663 391.779 115.768C395.501 114.435 399.123 111.928 401.893 108.161C404.673 104.397 406.574 99.4601 407.273 93.3966C407.4 92.3141 407.463 91.2745 407.463 90.2705C407.463 87.8738 407.099 85.6732 406.32 83.6995C405.738 82.2234 404.915 80.8884 403.913 79.7764C402.408 78.0993 400.531 76.969 398.657 76.3095C396.774 75.645 394.884 75.406 393.077 75.4047C390.988 75.4072 388.995 75.7247 387.16 76.22C385.323 76.7189 383.654 77.3871 382.176 78.2146C379.816 79.5423 378.979 82.5324 380.307 84.8935C381.634 87.2535 384.622 88.0907 386.983 86.763Z" fill="#F9DAB6"/>
<path fill-rule="evenodd" clip-rule="evenodd" d="M373.562 174.862C373.776 174.984 377.358 177.033 383.357 179.074C389.354 181.112 397.783 183.149 407.672 183.152C414.923 183.152 422.962 182.046 431.3 179.023C436.667 177.075 441.769 173.984 446.435 170.062C453.43 164.175 459.463 156.41 463.804 147.555C468.138 138.701 470.781 128.734 470.781 118.464C470.781 111.28 469.476 103.948 466.548 96.8563C463.624 89.7642 459.077 82.9271 452.721 76.7288L449.297 80.2387L454.046 81.456C454.117 81.1692 455.318 76.4187 455.321 69.2751C455.32 64.6435 454.813 58.998 453.112 52.9345C451.837 48.3899 449.886 43.61 446.978 38.8962C442.626 31.8225 436.104 24.9254 426.734 19.2199C417.363 13.507 405.18 8.96613 389.427 6.34016C383.103 5.28708 377.282 4.82367 371.939 4.82367C354.72 4.81142 342.491 9.67467 334.648 14.6875C326.793 19.6967 323.295 24.7685 323.016 25.1804L327.083 27.9192L330.945 24.8997C330.72 24.6189 325.934 18.5272 316.794 12.3987C312.224 9.33754 306.558 6.2715 299.837 3.9655C293.118 1.6595 285.34 0.123352 276.622 0.123352C272.326 0.123352 267.805 0.496094 263.075 1.32483C252.663 3.15149 243.938 5.55922 236.577 8.62039C231.059 10.9154 226.307 13.583 222.24 16.6454C216.136 21.2329 211.614 26.7374 208.425 32.9051C205.227 39.0753 203.333 45.8559 202.169 53.1466C201.855 55.1118 201.704 57.0022 201.704 58.8166C201.699 63.1907 202.6 67.1272 204.129 70.512C205.272 73.0534 206.755 75.281 208.409 77.2118C210.894 80.11 213.753 82.3485 216.551 84.136C219.349 85.9209 222.103 87.2609 224.424 88.3103C225.851 88.9539 227.371 89.3842 228.986 89.6747C230.6 89.964 232.31 90.1063 234.093 90.1075C237.231 90.105 240.599 89.665 243.978 88.6891C249.029 87.2241 254.162 84.5343 258.178 80.0964C260.178 77.8836 261.873 75.2356 263.069 72.1879C264.268 69.1402 264.964 65.7063 265.056 61.9439C265.064 61.5945 265.069 61.2476 265.069 60.9044C265.071 56.5498 264.365 52.7923 263.087 49.6159C262.134 47.2351 260.858 45.1927 259.39 43.5119C257.187 40.984 254.578 39.2959 252.052 38.2625C249.516 37.2278 247.072 36.8121 244.905 36.8084C244.583 36.8084 244.265 36.8183 243.951 36.8367H243.948C242.174 36.9494 240.349 37.186 238.54 37.6127C237.183 37.9339 235.833 38.3605 234.519 38.949C232.56 39.8317 230.627 41.0907 229.105 43.008C228.349 43.9618 227.716 45.0787 227.292 46.3046C226.866 47.5293 226.651 48.8521 226.652 50.1897C226.652 50.9975 226.728 51.8127 226.872 52.628C227.417 55.699 228.558 58.3863 230.473 60.4569C231.426 61.4855 232.579 62.3375 233.863 62.9125C235.145 63.4911 236.548 63.7841 237.926 63.7816C239.279 63.7816 240.602 63.5082 241.827 63.0314C243.054 62.5545 244.189 61.8753 245.225 61.0478C247.339 59.3548 247.681 56.269 245.99 54.1543C244.298 52.0395 241.212 51.6975 239.098 53.3893C238.758 53.6627 238.473 53.8135 238.274 53.8907C238.074 53.9668 237.968 53.9729 237.926 53.9741L237.881 53.9668C237.861 53.9533 237.696 53.8932 237.401 53.4506C237.116 53.0154 236.751 52.1965 236.529 50.924C236.476 50.6261 236.458 50.3846 236.458 50.1897C236.474 49.6134 236.561 49.4577 236.722 49.1905C236.854 48.998 237.084 48.7491 237.496 48.4672C238.105 48.043 239.119 47.5894 240.369 47.2633C241.617 46.9323 243.084 46.7165 244.561 46.6258H244.556C244.66 46.6196 244.777 46.616 244.905 46.616C245.667 46.6123 246.78 46.7656 247.907 47.1738C248.757 47.4778 249.622 47.9167 250.439 48.5186C251.662 49.4271 252.793 50.6739 253.699 52.5999C254.595 54.5258 255.262 57.1836 255.264 60.9044C255.264 61.163 255.26 61.4278 255.254 61.6988C255.159 65.3214 254.336 68.1252 253.095 70.4238C252.16 72.1463 250.971 73.5953 249.573 74.8384C247.482 76.6994 244.898 78.0834 242.166 78.9857C239.44 79.8905 236.578 80.3024 234.093 80.3C232.841 80.3 231.686 80.1958 230.716 80.0217C229.745 79.8501 228.958 79.6 228.463 79.3732C224.714 77.69 220.294 75.357 217.029 72.0923C215.391 70.4618 214.033 68.6265 213.07 66.486C212.109 64.3419 211.514 61.8765 211.51 58.8166C211.51 57.5477 211.615 56.1771 211.852 54.6913C212.785 48.8301 214.2 43.6516 216.306 39.101C217.887 35.6842 219.851 32.6109 222.35 29.7924C226.099 25.5727 231.081 21.8839 237.975 18.7111C244.861 15.5433 253.649 12.9321 264.768 10.9853C268.944 10.2534 272.893 9.93089 276.622 9.93089C284.188 9.93211 290.861 11.2562 296.657 13.2434C305.344 16.22 312.063 20.7156 316.579 24.4547C318.835 26.3218 320.538 27.9952 321.655 29.177C322.213 29.7667 322.626 30.235 322.887 30.5402C323.018 30.6935 323.113 30.8075 323.168 30.8749L323.223 30.9424L323.228 30.9497L325.293 29.3192L323.219 30.9399L323.228 30.9497L325.293 29.3192L323.219 30.9399C324.189 32.1793 325.684 32.8756 327.255 32.8205C328.828 32.7641 330.27 31.9635 331.149 30.6591L328.445 28.8374L331.131 30.6849L331.149 30.6591L328.445 28.8374L331.131 30.6849L331.023 30.6113L331.13 30.6861L331.131 30.6849L331.023 30.6113L331.13 30.6861C331.213 30.5648 334.074 26.5412 340.525 22.5789C346.99 18.6192 357.028 14.6435 371.939 14.6312C376.717 14.6312 381.995 15.0443 387.814 16.0141C400.936 18.2024 411.043 21.7441 418.82 25.976C424.656 29.1512 429.186 32.7113 432.74 36.4321C438.064 42.0138 441.223 47.9744 443.097 53.6922C444.965 59.4038 445.517 64.8727 445.516 69.2751C445.516 72.2909 445.259 74.7992 445.006 76.5167C444.881 77.3761 444.758 78.0381 444.669 78.4672C444.625 78.6817 444.591 78.8386 444.569 78.9318L444.547 79.025L444.544 79.0348L447.069 79.6674L444.548 79.0213L444.544 79.0348L447.069 79.6674L444.548 79.0213C444.113 80.718 444.619 82.525 445.873 83.7485C451.328 89.0752 455.071 94.7575 457.485 100.599C459.894 106.439 460.974 112.458 460.975 118.464C460.986 129.889 456.999 141.293 450.783 150.556C447.681 155.185 444.033 159.271 440.126 162.555C436.221 165.841 432.059 168.319 427.959 169.801C420.798 172.396 413.934 173.343 407.672 173.344C399.144 173.346 391.741 171.568 386.513 169.788C383.899 168.9 381.832 168.014 380.445 167.365C379.751 167.04 379.228 166.775 378.892 166.598C378.723 166.511 378.602 166.444 378.529 166.404L378.456 166.364L378.331 166.585L378.458 166.365L378.456 166.364L378.331 166.585L378.458 166.365C376.112 165.013 373.114 165.818 371.762 168.164C370.411 170.511 371.216 173.51 373.562 174.862Z" fill="#F9DAB6"/>
<path fill-rule="evenodd" clip-rule="evenodd" d="M157.346 134.297L158.46 135.579L157.353 134.29L157.346 134.297L158.46 135.579L157.353 134.29C157.299 134.339 153.416 137.656 147.296 140.881C144.236 142.497 140.623 144.088 136.668 145.265C132.713 146.443 128.423 147.204 123.979 147.204C119.46 147.202 114.785 146.428 110.005 144.482C105.226 142.529 100.317 139.394 95.3842 134.513C91.5675 130.731 89.1125 126.883 87.5841 123.192C86.0594 119.502 85.4625 115.951 85.4625 112.787C85.4613 110.502 85.7775 108.421 86.2678 106.682C86.7531 104.946 87.4285 103.552 88.0266 102.689C88.9544 101.338 89.8062 100.367 90.6519 99.6367C91.2905 99.0862 91.9303 98.6596 92.6804 98.2844C93.8031 97.7291 95.215 97.2853 97.1871 96.9813C99.1531 96.6772 101.655 96.5265 104.78 96.5277C105.337 96.5277 105.914 96.5326 106.512 96.5412C107.937 96.5681 109.056 96.9102 110.101 97.495C110.88 97.9351 111.609 98.5321 112.277 99.2751C113.28 100.385 114.129 101.831 114.714 103.387C115.302 104.939 115.62 106.593 115.66 108.01C115.665 108.2 115.669 108.384 115.669 108.562C115.67 110.091 115.46 111.164 115.209 111.842C115.019 112.357 114.823 112.66 114.617 112.898C114.308 113.24 113.931 113.522 113.116 113.801C112.312 114.072 111.091 114.263 109.511 114.261C108.662 114.261 107.87 114.165 107.212 114.008C106.219 113.783 105.566 113.386 105.412 113.231L105.37 113.191L105.361 113.181L104.878 113.568L105.45 113.356L105.361 113.181L104.878 113.568L105.45 113.356L104.529 113.698L105.514 113.697L105.45 113.356L104.529 113.698L105.514 113.697H104.921L105.509 113.78L105.514 113.697H104.921L105.509 113.78L105.297 113.751L105.507 113.793L105.509 113.78L105.297 113.751L105.507 113.793L105.547 113.679C105.644 113.431 106.044 112.754 107.007 111.858C108.982 110.006 109.082 106.903 107.23 104.927C105.378 102.95 102.276 102.851 100.3 104.703C98.9374 105.985 97.8343 107.323 97.0217 108.812C96.2139 110.293 95.7065 111.966 95.709 113.697C95.6967 115.536 96.3132 117.341 97.2729 118.725C97.9887 119.773 98.8687 120.613 99.8076 121.288C101.221 122.301 102.775 122.966 104.403 123.413C106.031 123.854 107.746 124.067 109.511 124.068C111.565 124.066 113.552 123.87 115.48 123.332C116.923 122.927 118.335 122.32 119.628 121.444C121.576 120.143 123.175 118.197 124.121 115.96C125.082 113.717 125.472 111.245 125.474 108.562C125.474 108.282 125.469 108 125.46 107.716C125.389 105.418 124.963 103.075 124.193 100.782C123.034 97.3516 121.106 93.9949 118.187 91.326C116.729 89.9983 115.014 88.8558 113.065 88.0467C111.119 87.2351 108.944 86.7668 106.654 86.7349C106.016 86.7263 105.39 86.7202 104.78 86.7202C101.734 86.7214 99.0575 86.8427 96.6049 87.159C94.7665 87.3968 93.053 87.7475 91.4302 88.2562C89.001 89.0151 86.7789 90.1675 84.8681 91.695C82.9499 93.2213 81.3664 95.0652 79.9471 97.1333C78.6136 99.0801 77.5754 101.391 76.8302 104.023C76.09 106.654 75.6585 109.606 75.6573 112.787C75.6561 117.184 76.4908 122.024 78.5241 126.941C80.5538 131.857 83.7871 136.834 88.4862 141.484C94.2419 147.186 100.272 151.105 106.301 153.562C112.329 156.024 118.331 157.014 123.979 157.012C129.63 157.011 134.931 156.034 139.689 154.598C146.827 152.44 152.762 149.259 156.963 146.61C161.164 143.957 163.63 141.826 163.774 141.702C165.819 139.926 166.037 136.829 164.262 134.784C162.487 132.74 159.391 132.52 157.346 134.295" fill="#F9DAB6"/>
<path fill-rule="evenodd" clip-rule="evenodd" d="M80.198 107.577L80.3169 109.189L80.2054 107.576L80.198 107.577L80.3169 109.189L80.2054 107.576C80.1723 107.578 79.1587 107.648 77.3974 107.648C72.0732 107.657 59.9282 106.984 47.4265 102.087C41.172 99.644 34.8317 96.1636 29.1091 91.2316C23.3853 86.2936 18.2572 79.915 14.3706 71.4891C11.5283 65.314 10.3934 59.7139 10.3909 54.7415C10.3921 50.6211 11.1729 46.9187 12.4892 43.6504C14.4601 38.7528 17.6652 34.8261 21.2502 32.1683C24.8304 29.4994 28.7635 28.1705 31.9698 28.1864C33.2714 28.1864 34.4542 28.3911 35.5131 28.7736C37.0991 29.3596 38.4363 30.3036 39.6228 31.8961C40.7969 33.4886 41.8093 35.8056 42.3131 39.1181L47.1605 38.3813L50.3398 34.6484C50.2112 34.5429 48.2158 32.8389 45.2865 31.0564C43.8182 30.1663 42.1145 29.2505 40.2209 28.5186C38.3248 27.7941 36.2314 27.2191 33.883 27.2105C32.764 27.2105 31.5813 27.3515 30.3948 27.7168C29.2096 28.0797 28.0256 28.6767 26.9765 29.5042C25.8047 30.4335 24.9835 31.5075 24.2996 32.6501C23.286 34.3676 22.5849 36.2874 22.0861 38.3997C21.5946 40.5096 21.325 42.8082 21.3238 45.2245C21.325 48.0417 21.6927 51.0183 22.5678 53.9875C23.2247 56.2126 24.1697 58.4328 25.4726 60.5414C27.4201 63.7044 30.2012 66.6074 33.845 68.7712C37.4877 70.9423 41.9453 72.357 47.1593 72.802C48.8372 72.9467 50.46 73.0178 52.0325 73.0178C57.0491 73.0203 61.5632 72.2859 65.6434 70.9399C69.215 69.7654 72.4409 68.1312 75.3996 66.2028C80.5853 62.8192 84.9658 58.586 89.3843 54.1089C96.0077 47.376 102.734 40.0473 112.087 33.3991C121.441 26.7581 133.428 20.7216 150.763 16.7962C155.582 15.7063 161.259 15.124 167.169 15.1264C176.628 15.1191 186.695 16.6208 194.93 19.5753C199.047 21.0465 202.7 22.8756 205.6 24.9634C208.508 27.0548 210.637 29.3743 211.944 31.836C213.215 34.2278 216.183 35.135 218.573 33.8637C220.964 32.5924 221.873 29.6232 220.602 27.2326C218.42 23.1343 215.161 19.7605 211.323 17.0009C205.551 12.8621 198.432 10.0106 190.805 8.11402C183.175 6.22607 175.024 5.32014 167.169 5.31892C160.623 5.32014 154.288 5.94777 148.603 7.23011C132.488 10.865 120.265 16.3757 110.562 22.5973C103.287 27.2596 97.4368 32.3031 92.3945 37.1504C88.6134 40.7866 85.2796 44.3087 82.137 47.4901C77.4219 52.2749 73.1444 56.2396 68.52 58.9281C66.2023 60.2779 63.7951 61.3309 61.1158 62.0641C58.4353 62.7959 55.4717 63.2103 52.0325 63.2103C50.7566 63.2103 49.4145 63.1527 48.0001 63.0313C44.48 62.7261 41.7677 61.8899 39.635 60.7756C36.4496 59.0948 34.4431 56.7876 33.0778 54.0562C31.7271 51.3359 31.1253 48.1618 31.129 45.2245C31.1253 42.9933 31.4795 40.9068 31.9771 39.3989C32.221 38.6461 32.5005 38.0405 32.7309 37.658C32.8436 37.4655 32.9429 37.3295 33.0042 37.2571L33.0618 37.1921L33.0324 37.1615L33.0606 37.1934L33.0618 37.1921L33.0324 37.1615L33.0606 37.1934L32.6721 36.7557L33.0336 37.2167L33.0606 37.1934L32.6721 36.7557L33.0336 37.2167C33.1133 37.1554 33.1611 37.1297 33.28 37.0904C33.3952 37.0549 33.5876 37.0181 33.883 37.0181C34.4958 37.0083 35.5413 37.2166 36.6898 37.6678C38.4216 38.3298 40.3434 39.4724 41.7468 40.4421C42.4516 40.9263 43.035 41.364 43.4284 41.6705C43.6257 41.825 43.7753 41.9451 43.8709 42.0236L43.9701 42.1057L43.9873 42.1204L45.007 40.9104L43.9824 42.1156L43.9873 42.1204L45.007 40.9104L43.9824 42.1156C45.5365 43.4396 47.7611 43.6602 49.5457 42.666C51.3302 41.6717 52.3144 39.6649 52.008 37.6458C51.5447 34.5956 50.7198 31.8532 49.5408 29.4368C47.7832 25.8154 45.1774 22.9443 42.0753 21.087C38.9768 19.2186 35.4617 18.374 31.9698 18.3789C28.1225 18.3826 24.2764 19.3682 20.6533 21.1102C15.2237 23.7313 10.2524 28.0711 6.58034 33.8012C2.91196 39.5275 0.582016 46.6797 0.585678 54.7415C0.583237 61.2267 2.08833 68.2686 5.46623 75.5936C9.93864 85.3116 15.9971 92.883 22.7088 98.6608C32.7849 107.339 44.2422 112.005 54.2337 114.532C64.2363 117.055 72.8221 117.453 77.3974 117.456C79.5509 117.456 80.8158 117.365 80.9212 117.358C83.6213 117.158 85.6485 114.807 85.4487 112.106C85.2489 109.405 82.8981 107.377 80.198 107.577Z" fill="#F9DAB6"/>
</svg>
