<svg width="471" height="207" viewBox="0 0 471 207" fill="none" xmlns="http://www.w3.org/2000/svg">
<path fill-rule="evenodd" clip-rule="evenodd" d="M386.983 120.296C387.616 120.657 388.621 121.078 389.72 121.373C390.818 121.672 392.018 121.85 393.077 121.847C393.894 121.848 394.621 121.744 395.177 121.572C395.598 121.445 395.921 121.286 396.176 121.112C396.555 120.839 396.821 120.568 397.109 119.968C397.387 119.368 397.657 118.375 397.658 116.789C397.658 116.202 397.62 115.537 397.534 114.795C397.17 111.669 396.435 109.203 395.513 107.265C394.121 104.36 392.352 102.605 390.434 101.452C388.516 100.311 386.374 99.8059 384.34 99.8071C383.966 99.8071 383.599 99.823 383.242 99.8561H383.24C381.733 99.9922 379.804 100.338 377.852 100.99C376.386 101.478 374.904 102.136 373.539 102.984C371.484 104.261 369.706 105.92 368.391 108.18C367.085 110.448 366.175 113.382 366.166 117.531C366.166 118.374 366.205 119.268 366.29 120.212C366.686 124.632 367.809 128.499 369.513 131.853C372.076 136.877 375.941 140.801 380.97 143.611C385.994 146.411 392.211 148.056 399.316 148.231H399.315C399.493 148.235 399.674 148.237 399.857 148.238C403.562 148.244 408.054 147.298 412.6 145.461C419.432 142.72 426.362 137.996 431.392 132.136C433.914 129.209 435.967 126.009 437.378 122.648C438.79 119.281 439.567 115.764 439.568 112.089C439.569 110.646 439.421 108.63 439.068 106.287C438.453 102.181 437.217 97.0463 435.19 91.7502C432.152 83.7914 427.329 75.5065 420.338 69.3621C416.838 66.2825 412.805 63.7154 408.097 61.8973C403.387 60.0817 397.99 59.0065 391.699 59.0041C389.206 59.0041 386.573 59.1745 383.791 59.5398C381.18 59.8831 378.766 58.1043 378.321 55.5077L379.749 55.2625L378.322 55.5187L378.321 55.5077L379.749 55.2625L378.322 55.5187C378.303 55.3655 376.755 47.0389 371.101 37.761C368.276 33.1159 364.443 28.2329 359.284 23.9152C354.119 19.5974 347.637 15.8264 339.345 13.3831C332.994 11.516 327.193 10.7694 321.934 10.7694C310.492 10.7706 301.522 14.3112 295.339 17.9461C292.256 19.7617 289.883 21.5994 288.319 22.981C287.538 23.6688 286.957 24.2474 286.616 24.6152C286.447 24.7954 286.337 24.9278 286.322 24.9474L285.796 24.5294L286.336 24.9291L286.322 24.9474L285.796 24.5294L286.336 24.9291L283.93 23.1478L286.474 24.7219C286.393 24.8518 286.355 24.9021 286.336 24.9291L283.93 23.1478L286.474 24.7219L282.905 22.5152L286.637 24.4338C286.566 24.5698 286.515 24.6557 286.474 24.7219L282.905 22.5152L286.637 24.4338L282.509 22.3104L286.912 23.7803C286.798 24.115 286.707 24.294 286.637 24.4338L282.509 22.3104L286.912 23.7803C286.317 25.5604 284.757 26.8477 282.897 27.0904C281.036 27.3331 279.198 26.4909 278.166 24.9242L280.861 23.149L278.181 24.9474L278.166 24.9242L280.861 23.149L278.181 24.9474L278.213 24.9266L278.181 24.9487V24.9474L278.213 24.9266L278.181 24.9487C278.102 24.8273 275.463 21.0281 269.821 17.3257C266.997 15.4709 263.423 13.6308 258.999 12.2467C254.573 10.8638 249.292 9.93211 243.014 9.93088C239.839 9.93088 236.411 10.1699 232.71 10.7155C223.843 12.0211 215.418 13.6504 207.779 16.052C202.046 17.8529 196.76 20.0841 192.018 22.9124C184.904 27.1676 178.998 32.7064 174.408 40.4568C169.829 48.2097 166.566 58.271 165.215 71.5749C164.989 73.8049 164.882 75.9331 164.882 77.9608C164.888 86.3499 166.694 93.0203 169.591 98.4573C171.77 102.534 174.586 105.931 177.846 108.78C182.73 113.05 188.644 116.066 194.699 117.992C200.745 119.921 206.92 120.75 212.136 120.747C215.576 120.751 218.606 120.382 220.803 119.818C228.456 117.881 236.419 113.653 242.21 108.016C245.113 105.201 247.48 102.053 249.102 98.7001C250.723 95.3398 251.618 91.7907 251.622 87.9952C251.62 86.8869 251.544 85.7566 251.381 84.5993C250.211 76.1268 245.621 67.6065 239.169 61.3738C235.952 58.2551 232.291 55.7075 228.437 53.9618C224.58 52.2136 220.544 51.2635 216.488 51.2635C215.741 51.2635 214.992 51.2954 214.243 51.3616C209.785 51.7514 205.819 52.4281 202.451 53.3783C199.925 54.0905 197.739 54.9548 195.923 55.9368C193.189 57.4177 191.319 59.1156 190.089 61.0428C188.869 62.9786 188.182 65.2233 188.169 68.2722C188.169 69.1635 188.233 70.1209 188.369 71.147C188.565 72.6071 189.105 74.0072 189.968 75.3496C191.253 77.3552 193.304 79.1818 195.662 80.4458C198.013 81.7195 200.642 82.4061 202.88 82.3975C204.055 82.3988 205.119 82.2185 206.025 81.8949C207.389 81.3934 208.414 80.6517 209.297 79.3584C210.166 78.0613 210.907 76.0716 211.054 72.9908C211.181 70.2864 213.476 68.195 216.181 68.3225C218.886 68.4488 220.975 70.7449 220.849 73.4506C220.709 76.4247 220.159 79.1169 219.192 81.5025C218.469 83.2887 217.507 84.8972 216.346 86.2776C214.607 88.3507 212.423 89.8794 210.098 90.8332C207.768 91.7931 205.309 92.2051 202.88 92.2051C200.129 92.2038 197.402 91.684 194.804 90.7633C190.909 89.3768 187.278 87.0928 184.364 84.0157C182.909 82.4759 181.638 80.7315 180.648 78.7908C179.659 76.8526 178.953 74.7145 178.65 72.4429C178.461 71.0208 178.364 69.6305 178.364 68.2722C178.357 64.1628 179.274 60.3146 181.099 56.9923C182.46 54.5 184.307 52.3288 186.487 50.512C189.764 47.7806 193.757 45.8203 198.266 44.3945C202.782 42.9712 207.84 42.0787 213.386 41.5908C214.423 41.5001 215.459 41.456 216.488 41.456C222.086 41.456 227.504 42.7702 232.484 45.0296C239.958 48.4242 246.48 53.9115 251.472 60.55C256.457 67.1934 259.933 75.0173 261.091 83.236C261.316 84.8408 261.427 86.4309 261.427 87.9952C261.429 93.366 260.129 98.4303 257.928 102.972C254.618 109.795 249.353 115.467 243.26 119.899C237.156 124.33 230.197 127.539 223.223 129.322C219.997 130.141 216.257 130.551 212.136 130.555C206.598 130.552 200.388 129.795 194.088 128.042C189.365 126.726 184.593 124.848 180.056 122.276C173.256 118.427 166.962 112.979 162.398 105.603C157.825 98.2379 155.066 88.9968 155.077 77.9608C155.077 75.5874 155.202 73.1294 155.459 70.5855C156.755 57.8051 159.744 47.2841 164.22 38.6253C167.574 32.1339 171.765 26.7103 176.592 22.2381C183.834 15.52 192.44 10.968 201.719 7.7303C211.007 4.49014 221.001 2.53108 231.281 1.01336C235.437 0.400394 239.347 0.123352 243.014 0.123352C250.499 0.123352 256.97 1.28062 262.437 3.04843C270.641 5.70014 276.559 9.70777 280.432 13.0914C284.309 16.4799 286.165 19.2431 286.357 19.5325L282.262 22.2283L277.61 20.6762C277.772 20.2067 277.897 19.9873 277.998 19.7985C278.194 19.4491 278.321 19.2787 278.447 19.1034C278.686 18.7834 278.906 18.5235 279.172 18.2244C279.665 17.6751 280.294 17.034 281.096 16.2911C283.891 13.7092 288.765 9.92474 295.638 6.72626C302.502 3.5339 311.377 0.959432 321.934 0.961884C328.126 0.960658 334.885 1.84702 342.112 3.97526C351.87 6.84151 359.707 11.4131 365.867 16.638C375.117 24.4804 380.604 33.7117 383.803 40.9668C387.001 48.2318 387.933 53.5621 387.984 53.8478L383.153 54.6777L382.514 49.8169C385.697 49.3976 388.759 49.1966 391.699 49.1966C403.001 49.1843 412.525 52.2111 420.175 57.0315C425.918 60.6395 430.611 65.2135 434.402 70.1614C440.089 77.5918 443.784 85.8534 446.103 93.328C447.262 97.0671 448.073 100.613 448.6 103.786C449.126 106.965 449.373 109.757 449.373 112.089C449.373 118.864 447.432 125.196 444.309 130.752C439.61 139.097 432.336 145.798 424.397 150.524C420.421 152.884 416.267 154.746 412.122 156.036C407.976 157.322 403.838 158.042 399.857 158.044C399.597 158.044 399.337 158.042 399.077 158.036H399.076C393.428 157.897 388.082 156.975 383.184 155.286C375.842 152.759 369.495 148.472 364.839 142.624C360.174 136.785 357.259 129.429 356.524 121.085C356.415 119.863 356.361 118.679 356.361 117.531C356.356 112.525 357.394 108.175 359.201 104.574C360.55 101.872 362.316 99.6085 364.273 97.7769C367.213 95.0247 370.545 93.2287 373.704 92.0542C376.871 90.881 379.875 90.3171 382.352 90.0891H382.35C383.007 90.029 383.67 89.9996 384.34 89.9996C386.767 89.9996 389.294 90.3967 391.779 91.2917C395.501 92.6243 399.123 95.1313 401.893 98.8987C404.673 102.662 406.574 107.599 407.273 113.663C407.4 114.745 407.463 115.785 407.463 116.789C407.463 119.186 407.099 121.386 406.32 123.36C405.738 124.836 404.915 126.171 403.913 127.283C402.408 128.96 400.531 130.09 398.657 130.75C396.774 131.414 394.884 131.653 393.077 131.655C390.988 131.652 388.995 131.335 387.16 130.839C385.323 130.34 383.654 129.672 382.176 128.845C379.816 127.517 378.979 124.527 380.307 122.166C381.634 119.806 384.622 118.969 386.983 120.296Z" fill="#F6F2A1"/>
<path fill-rule="evenodd" clip-rule="evenodd" d="M373.562 32.1976C373.776 32.075 377.358 30.0264 383.357 27.9852C389.354 25.9477 397.783 23.9102 407.672 23.9078C414.923 23.9078 422.962 25.0136 431.3 28.0367C436.667 29.9847 441.769 33.0754 446.435 36.9972C453.43 42.8841 459.463 50.6492 463.804 59.5042C468.138 68.3579 470.781 78.3249 470.781 88.5958C470.781 95.7798 469.476 103.111 466.548 110.203C463.624 117.295 459.077 124.132 452.721 130.331L449.297 126.821L454.046 125.603C454.117 125.89 455.318 130.641 455.321 137.784C455.32 142.416 454.813 148.061 453.112 154.125C451.837 158.669 449.886 163.449 446.978 168.163C442.626 175.237 436.104 182.134 426.734 187.839C417.363 193.552 405.18 198.093 389.427 200.719C383.103 201.772 377.282 202.236 371.939 202.236C354.72 202.248 342.491 197.385 334.648 192.372C326.793 187.363 323.295 182.291 323.016 181.879L327.083 179.14L330.945 182.16C330.72 182.44 325.934 188.532 316.794 194.661C312.224 197.722 306.558 200.788 299.837 203.094C293.118 205.4 285.34 206.936 276.622 206.936C272.326 206.936 267.805 206.563 263.075 205.734C252.663 203.908 243.938 201.5 236.577 198.439C231.059 196.144 226.307 193.476 222.24 190.414C216.136 185.826 211.614 180.322 208.425 174.154C205.227 167.984 203.333 161.203 202.169 153.913C201.855 151.948 201.704 150.057 201.704 148.243C201.699 143.869 202.6 139.932 204.129 136.547C205.272 134.006 206.755 131.778 208.409 129.847C210.894 126.949 213.753 124.711 216.551 122.923C219.349 121.138 222.103 119.798 224.424 118.749C225.851 118.105 227.371 117.675 228.986 117.385C230.6 117.095 232.31 116.953 234.093 116.952C237.231 116.954 240.599 117.394 243.978 118.37C249.029 119.835 254.162 122.525 258.178 126.963C260.178 129.176 261.873 131.824 263.069 134.871C264.268 137.919 264.964 141.353 265.056 145.115C265.064 145.465 265.069 145.812 265.069 146.155C265.071 150.51 264.365 154.267 263.087 157.443C262.134 159.824 260.858 161.867 259.39 163.547C257.187 166.075 254.578 167.763 252.052 168.797C249.516 169.832 247.072 170.247 244.905 170.251C244.583 170.251 244.265 170.241 243.951 170.223H243.948C242.174 170.11 240.349 169.873 238.54 169.447C237.183 169.125 235.833 168.699 234.519 168.11C232.56 167.228 230.627 165.969 229.105 164.051C228.349 163.098 227.716 161.981 227.292 160.755C226.866 159.53 226.651 158.207 226.652 156.87C226.652 156.062 226.728 155.247 226.872 154.431C227.417 151.36 228.558 148.673 230.473 146.602C231.426 145.574 232.579 144.722 233.863 144.147C235.145 143.568 236.548 143.275 237.926 143.278C239.279 143.278 240.602 143.551 241.827 144.028C243.054 144.505 244.189 145.184 245.225 146.012C247.339 147.705 247.681 150.79 245.99 152.905C244.298 155.02 241.212 155.362 239.098 153.67C238.758 153.397 238.473 153.246 238.274 153.169C238.074 153.093 237.968 153.086 237.926 153.085L237.881 153.093C237.861 153.106 237.696 153.166 237.401 153.609C237.116 154.044 236.751 154.863 236.529 156.135C236.476 156.433 236.458 156.675 236.458 156.87C236.474 157.446 236.561 157.602 236.722 157.869C236.854 158.061 237.084 158.31 237.496 158.592C238.105 159.016 239.119 159.47 240.369 159.796C241.617 160.127 243.084 160.343 244.561 160.434H244.556C244.66 160.44 244.777 160.443 244.905 160.443C245.667 160.447 246.78 160.294 247.907 159.886C248.757 159.581 249.622 159.143 250.439 158.541C251.662 157.632 252.793 156.385 253.699 154.459C254.595 152.534 255.262 149.876 255.264 146.155C255.264 145.896 255.26 145.631 255.254 145.361C255.159 141.738 254.336 138.934 253.095 136.636C252.16 134.913 250.971 133.464 249.573 132.221C247.482 130.36 244.898 128.976 242.166 128.074C239.44 127.169 236.578 126.757 234.093 126.759C232.841 126.759 231.686 126.864 230.716 127.038C229.745 127.209 228.958 127.459 228.463 127.686C224.714 129.369 220.294 131.702 217.029 134.967C215.391 136.598 214.033 138.433 213.07 140.573C212.109 142.717 211.514 145.183 211.51 148.243C211.51 149.512 211.615 150.882 211.852 152.368C212.785 158.229 214.2 163.408 216.306 167.958C217.887 171.375 219.851 174.448 222.35 177.267C226.099 181.487 231.081 185.175 237.975 188.348C244.861 191.516 253.649 194.127 264.768 196.074C268.944 196.806 272.893 197.128 276.622 197.128C284.188 197.127 290.861 195.803 296.657 193.816C305.344 190.839 312.063 186.344 316.579 182.605C318.835 180.738 320.538 179.064 321.655 177.882C322.213 177.293 322.626 176.824 322.887 176.519C323.018 176.366 323.113 176.252 323.168 176.184L323.223 176.117L323.228 176.11L325.293 177.74L323.219 176.119L323.228 176.11L325.293 177.74L323.219 176.119C324.189 174.88 325.684 174.184 327.255 174.239C328.828 174.295 330.27 175.096 331.149 176.4L328.445 178.222L331.131 176.374L331.149 176.4L328.445 178.222L331.131 176.374L331.023 176.448L331.13 176.373L331.131 176.374L331.023 176.448L331.13 176.373C331.213 176.495 334.074 180.518 340.525 184.48C346.99 188.44 357.028 192.416 371.939 192.428C376.717 192.428 381.995 192.015 387.814 191.045C400.936 188.857 411.043 185.315 418.82 181.083C424.656 177.908 429.186 174.348 432.74 170.627C438.064 165.046 441.223 159.085 443.097 153.367C444.965 147.656 445.517 142.187 445.516 137.784C445.516 134.768 445.259 132.26 445.006 130.543C444.881 129.683 444.758 129.021 444.669 128.592C444.625 128.378 444.591 128.221 444.569 128.128L444.547 128.034L444.544 128.025L447.069 127.392L444.548 128.038L444.544 128.025L447.069 127.392L444.548 128.038C444.113 126.341 444.619 124.534 445.873 123.311C451.328 117.984 455.071 112.302 457.485 106.46C459.894 100.62 460.974 94.6017 460.975 88.5958C460.986 77.17 456.999 65.7663 450.783 56.5031C447.681 51.8739 444.033 47.7879 440.126 44.5048C436.221 41.2181 432.059 38.7404 427.959 37.2583C420.798 34.6629 413.934 33.7165 407.672 33.7153C399.144 33.7129 391.741 35.4917 386.513 37.2718C383.899 38.1593 381.832 39.0457 380.445 39.6942C379.751 40.0191 379.228 40.2839 378.892 40.4617C378.723 40.5487 378.602 40.6149 378.529 40.6553L378.456 40.6958L378.331 40.4739L378.458 40.6946L378.456 40.6958L378.331 40.4739L378.458 40.6946C376.112 42.0468 373.114 41.2414 371.762 38.8949C370.411 36.5485 371.216 33.5498 373.562 32.1976Z" fill="#F6F2A1"/>
<path fill-rule="evenodd" clip-rule="evenodd" d="M157.346 72.7628L158.46 71.4805L157.353 72.769L157.346 72.7628L158.46 71.4805L157.353 72.769C157.299 72.7199 153.416 69.4037 147.296 66.1783C144.236 64.5625 140.623 62.9712 136.668 61.7943C132.713 60.6162 128.423 59.8549 123.979 59.8549C119.46 59.8574 114.785 60.6309 110.005 62.5777C105.226 64.5306 100.317 67.6654 95.3842 72.5458C91.5675 76.3279 89.1125 80.1761 87.5841 83.8674C86.0594 87.5575 85.4625 91.1078 85.4625 94.272C85.4613 96.5571 85.7775 98.6388 86.2678 100.377C86.7531 102.113 87.4285 103.507 88.0266 104.37C88.9544 105.721 89.8062 106.692 90.6519 107.423C91.2905 107.973 91.9303 108.4 92.6804 108.775C93.8031 109.33 95.215 109.774 97.1871 110.078C99.1531 110.382 101.655 110.533 104.78 110.532C105.337 110.532 105.914 110.527 106.512 110.518C107.937 110.491 109.056 110.149 110.101 109.564C110.88 109.124 111.609 108.527 112.277 107.784C113.28 106.675 114.129 105.228 114.714 103.672C115.302 102.12 115.62 100.467 115.66 99.0494C115.665 98.8594 115.669 98.6756 115.669 98.4978C115.67 96.9679 115.46 95.8951 115.209 95.2172C115.019 94.7023 114.823 94.3994 114.617 94.1616C114.308 93.8196 113.931 93.5376 113.116 93.2581C112.312 92.9872 111.091 92.7959 109.511 92.7984C108.662 92.7984 107.87 92.8941 107.212 93.051C106.219 93.2766 105.566 93.6737 105.412 93.8282L105.37 93.8687L105.361 93.8785L104.878 93.491L105.45 93.7032L105.361 93.8785L104.878 93.491L105.45 93.7032L104.529 93.3611L105.514 93.3623L105.45 93.7032L104.529 93.3611L105.514 93.3623H104.921L105.509 93.279L105.514 93.3623H104.921L105.509 93.279L105.297 93.3084L105.507 93.2667L105.509 93.279L105.297 93.3084L105.507 93.2667L105.547 93.3807C105.644 93.6284 106.044 94.3051 107.007 95.2012C108.982 97.0536 109.082 100.156 107.23 102.133C105.378 104.109 102.276 104.208 100.3 102.356C98.9374 101.075 97.8343 99.736 97.0217 98.2477C96.2139 96.7667 95.7065 95.0934 95.709 93.3623C95.6967 91.5234 96.3132 89.7188 97.2729 88.3347C97.9887 87.2865 98.8687 86.4468 99.8076 85.7713C101.221 84.7587 102.775 84.093 104.403 83.6468C106.031 83.2054 107.746 82.9921 109.511 82.9908C111.565 82.9933 113.552 83.1895 115.48 83.7276C116.923 84.1322 118.335 84.7391 119.628 85.6156C121.576 86.9164 123.175 88.8619 124.121 91.0992C125.082 93.3427 125.472 95.8142 125.474 98.4978C125.474 98.7773 125.469 99.0593 125.46 99.3437C125.389 101.641 124.963 103.984 124.193 106.278C123.034 109.708 121.106 113.064 118.187 115.733C116.729 117.061 115.014 118.204 113.065 119.013C111.119 119.824 108.944 120.293 106.654 120.324C106.016 120.333 105.39 120.339 104.78 120.339C101.734 120.338 99.0575 120.217 96.6049 119.9C94.7665 119.662 93.053 119.312 91.4302 118.803C89.001 118.044 86.7789 116.892 84.8681 115.364C82.9499 113.838 81.3664 111.994 79.9471 109.926C78.6136 107.979 77.5754 105.668 76.8302 103.036C76.09 100.405 75.6585 97.4533 75.6573 94.272C75.6561 89.8758 76.4908 85.0358 78.5241 80.1185C80.5538 75.2025 83.7871 70.2252 88.4862 65.5752C94.2419 59.8733 100.272 55.9539 106.301 53.4972C112.329 51.0355 118.331 50.0449 123.979 50.0474C129.63 50.0486 134.931 51.0257 139.689 52.4612C146.827 54.6189 152.762 57.8002 156.963 60.4495C161.164 63.1024 163.63 65.2331 163.774 65.3569C165.819 67.1333 166.037 70.2301 164.262 72.2749C162.487 74.3198 159.391 74.5392 157.346 72.7641" fill="#F6F2A1"/>
<path fill-rule="evenodd" clip-rule="evenodd" d="M80.198 99.4822L80.3169 97.8701L80.2054 99.4834L80.198 99.4822L80.3169 97.8701L80.2054 99.4834C80.1723 99.4809 79.1587 99.4111 77.3974 99.4111C72.0732 99.4025 59.9282 100.076 47.4265 104.972C41.172 107.415 34.8317 110.896 29.1091 115.828C23.3853 120.766 18.2572 127.144 14.3706 135.57C11.5283 141.745 10.3934 147.345 10.3909 152.318C10.3921 156.438 11.1729 160.141 12.4892 163.409C14.4601 168.307 17.6652 172.233 21.2502 174.891C24.8304 177.56 28.7635 178.889 31.9698 178.873C33.2714 178.873 34.4542 178.668 35.5131 178.286C37.0991 177.7 38.4363 176.756 39.6228 175.163C40.7969 173.571 41.8093 171.254 42.3131 167.941L47.1605 168.678L50.3398 172.411C50.2112 172.516 48.2158 174.22 45.2865 176.003C43.8182 176.893 42.1145 177.809 40.2209 178.541C38.3248 179.265 36.2314 179.84 33.883 179.849C32.764 179.849 31.5813 179.708 30.3948 179.343C29.2096 178.98 28.0256 178.383 26.9765 177.555C25.8047 176.626 24.9835 175.552 24.2996 174.409C23.286 172.692 22.5849 170.772 22.0861 168.66C21.5946 166.55 21.325 164.251 21.3238 161.835C21.325 159.018 21.6927 156.041 22.5678 153.072C23.2247 150.847 24.1697 148.627 25.4726 146.518C27.4201 143.355 30.2012 140.452 33.845 138.288C37.4877 136.117 41.9453 134.702 47.1593 134.257C48.8372 134.113 50.46 134.041 52.0325 134.041C57.0491 134.039 61.5632 134.773 65.6434 136.119C69.215 137.294 72.4409 138.928 75.3996 140.857C80.5853 144.24 84.9658 148.473 89.3843 152.95C96.0077 159.683 102.734 167.012 112.087 173.66C121.441 180.301 133.428 186.338 150.763 190.263C155.582 191.353 161.259 191.935 167.169 191.933C176.628 191.94 186.695 190.438 194.93 187.484C199.047 186.013 202.7 184.184 205.6 182.096C208.508 180.004 210.637 177.685 211.944 175.223C213.215 172.831 216.183 171.924 218.573 173.196C220.964 174.467 221.873 177.436 220.602 179.827C218.42 183.925 215.161 187.299 211.323 190.058C205.551 194.197 198.432 197.049 190.805 198.945C183.175 200.833 175.024 201.739 167.169 201.74C160.623 201.739 154.288 201.112 148.603 199.829C132.488 196.194 120.265 190.684 110.562 184.462C103.287 179.8 97.4368 174.756 92.3945 169.909C88.6134 166.273 85.2796 162.751 82.137 159.569C77.4219 154.784 73.1444 150.82 68.52 148.131C66.2023 146.781 63.7951 145.728 61.1158 144.995C58.4353 144.263 55.4717 143.849 52.0325 143.849C50.7566 143.849 49.4145 143.907 48.0001 144.028C44.48 144.333 41.7677 145.169 39.635 146.284C36.4496 147.965 34.4431 150.272 33.0778 153.003C31.7271 155.723 31.1253 158.897 31.129 161.835C31.1253 164.066 31.4795 166.153 31.9771 167.66C32.221 168.413 32.5005 169.019 32.7309 169.401C32.8436 169.594 32.9429 169.73 33.0042 169.802L33.0618 169.867L33.0324 169.898L33.0606 169.866L33.0618 169.867L33.0324 169.898L33.0606 169.866L32.6721 170.304L33.0336 169.843L33.0606 169.866L32.6721 170.304L33.0336 169.843C33.1133 169.904 33.1611 169.93 33.28 169.969C33.3952 170.004 33.5876 170.041 33.883 170.041C34.4958 170.051 35.5413 169.843 36.6898 169.392C38.4216 168.73 40.3434 167.587 41.7468 166.617C42.4516 166.133 43.035 165.695 43.4284 165.389C43.6257 165.234 43.7753 165.114 43.8709 165.036L43.9701 164.954L43.9873 164.939L45.007 166.149L43.9824 164.944L43.9873 164.939L45.007 166.149L43.9824 164.944C45.5365 163.62 47.7611 163.399 49.5457 164.393C51.3302 165.388 52.3144 167.394 52.008 169.414C51.5447 172.464 50.7198 175.206 49.5408 177.622C47.7832 181.244 45.1774 184.115 42.0753 185.972C38.9768 187.841 35.4617 188.685 31.9698 188.68C28.1225 188.677 24.2764 187.691 20.6533 185.949C15.2237 183.328 10.2524 178.988 6.58034 173.258C2.91196 167.532 0.582016 160.38 0.585678 152.318C0.583237 145.833 2.08833 138.791 5.46623 131.466C9.93864 121.748 15.9971 114.176 22.7088 108.398C32.7849 99.72 44.2422 95.0541 54.2337 92.5275C64.2363 90.0045 72.8221 89.606 77.3974 89.6036C79.5509 89.6036 80.8158 89.6942 80.9212 89.7016C83.6213 89.9014 85.6485 92.2528 85.4487 94.9535C85.2489 97.6543 82.8981 99.682 80.198 99.4822Z" fill="#F6F2A1"/>
</svg>
