<svg width="329" height="161" viewBox="0 0 329 161" fill="none" xmlns="http://www.w3.org/2000/svg">
<path fill-rule="evenodd" clip-rule="evenodd" d="M194.918 86.3714C193.214 83.3225 191.18 80.8289 188.765 79.0035C186.363 77.1866 183.483 76.0441 180.468 76.0465C178.519 76.0429 176.57 76.5308 174.83 77.4343C172.207 78.7926 170.086 80.9981 168.444 83.7332C166.814 86.4805 165.613 89.7954 164.828 93.6976C164.387 95.892 164.166 97.9516 164.166 99.8972C164.166 103.558 164.963 106.846 166.471 109.565C167.598 111.605 169.081 113.292 170.724 114.613C173.2 116.602 175.969 117.801 178.654 118.579C181.338 119.353 183.973 119.71 186.314 119.892C186.645 119.917 186.964 119.928 187.282 119.928C188.998 119.922 190.726 119.64 192.614 119.173C195.911 118.348 199.674 116.908 203.596 114.878C209.467 111.826 215.668 107.456 220.595 101.644C223.059 98.7362 225.179 95.4568 226.711 91.7962C228.244 88.1392 229.151 84.0948 229.151 79.793C229.151 78.6823 229.089 77.5557 228.967 76.4155C228.427 71.4897 226.883 66.3653 224.493 61.3659C220.89 53.8778 215.362 46.6509 208.069 41.1759C204.429 38.4432 200.348 36.1581 195.874 34.5558C191.388 32.9535 186.522 32.0414 181.362 32.0426C175.565 32.0401 169.412 33.1974 163.088 35.7204C156.751 38.2422 150.231 42.1186 143.575 47.5471L146.664 51.3475L151.089 49.2364C151.052 49.1457 145.916 38.377 139.028 27.1989C135.584 21.6037 131.711 15.9092 127.654 11.2911C125.632 8.98019 123.561 6.93042 121.354 5.27785C120.239 4.45157 119.099 3.72459 117.886 3.13246C116.66 2.544 115.349 2.08672 113.939 1.8734C109.821 1.25798 103.251 0.24292 95.645 0.24292C87.2799 0.247824 77.5617 1.45537 68.3044 5.95948C63.6849 8.2103 59.199 11.296 55.1641 15.4115C51.1268 19.5245 47.5504 24.6588 44.6799 30.9295C41.7249 37.4098 40.3264 44.5631 39.5665 50.189C38.8201 55.8087 38.7637 59.885 38.7612 60.0198L43.6626 60.0872L44.6493 55.2828C44.4164 55.2374 41.4589 54.6391 37.0968 54.6367C34.3489 54.6379 31.0396 54.8757 27.4962 55.6836C24.839 56.2905 22.0494 57.2222 19.2966 58.6357C15.1723 60.7468 11.1338 63.9918 7.97773 68.6614C4.81309 73.3261 2.56154 79.3418 1.64598 86.8434C1.13366 91.0324 0.864014 94.926 0.864014 98.5597C0.866465 105.117 1.73549 110.867 3.76394 115.876C5.28008 119.626 7.47644 122.933 10.3077 125.644C12.4269 127.681 14.8843 129.379 17.6138 130.758C21.7149 132.831 26.4152 134.206 31.7296 135.085C37.0477 135.961 42.9971 136.341 49.6622 136.341C50.7347 136.341 51.8243 136.331 52.9335 136.313L52.8477 131.409L48.374 133.413C48.5272 133.732 51.4823 140.34 58.0248 147.138C61.2998 150.531 65.494 153.975 70.7214 156.591C75.9415 159.207 82.2107 160.965 89.3783 160.96C91.3467 160.96 93.38 160.829 95.4759 160.553C101.143 159.809 105.936 158.232 109.895 156.013C112.861 154.352 115.349 152.332 117.371 150.106C120.411 146.762 122.396 142.98 123.597 139.265C124.798 135.544 125.24 131.881 125.24 128.595C125.24 126.104 124.982 123.83 124.566 121.851C123.511 116.965 121.232 112.582 117.898 109.288C116.231 107.646 114.295 106.282 112.125 105.329C109.956 104.374 107.553 103.841 105.078 103.843C103.717 103.843 102.332 104.002 100.947 104.32C98.8513 104.81 96.7555 105.651 94.6878 106.747C91.5906 108.4 88.5559 110.617 86.0837 113.372C84.8507 114.754 83.7574 116.281 82.9277 118.007C82.104 119.728 81.5414 121.683 81.5402 123.799C81.5292 125.872 82.1261 128.057 83.299 129.951C84.4671 131.857 86.1364 133.47 88.1832 134.833C90.436 136.336 93.4793 135.727 94.9807 133.473C96.4834 131.22 95.8742 128.175 93.6215 126.673C92.4853 125.915 91.9239 125.262 91.6592 124.827C91.3981 124.38 91.3565 124.149 91.3454 123.799C91.3454 123.563 91.3871 123.262 91.5146 122.875C91.7303 122.203 92.2402 121.283 93.0405 120.32C94.2282 118.87 96.0336 117.357 97.9321 116.189C99.8074 115.012 101.817 114.175 103.153 113.877C103.84 113.72 104.465 113.651 105.078 113.651C106.181 113.653 107.186 113.877 108.179 114.309C109.662 114.955 111.096 116.113 112.297 117.758C113.51 119.398 114.466 121.512 114.981 123.905C115.238 125.15 115.434 126.791 115.434 128.595C115.434 130.717 115.177 133.071 114.527 135.381C114.037 137.116 113.339 138.824 112.383 140.432C110.949 142.843 108.975 145.038 106.095 146.863C103.215 148.682 99.3906 150.144 94.1988 150.829C92.5172 151.05 90.9116 151.153 89.3783 151.153C83.7979 151.146 79.1269 149.824 75.1068 147.819C69.0913 144.819 64.5649 140.178 61.5903 136.245C60.1035 134.284 59.0078 132.515 58.2994 131.264C57.944 130.639 57.6865 130.145 57.5248 129.821C57.4439 129.659 57.3862 129.54 57.3531 129.469L57.3201 129.399L57.3164 129.392L54.8308 130.521L57.3225 129.406L57.3164 129.392L54.8308 130.521L57.3225 129.406C56.5185 127.608 54.7303 126.472 52.7631 126.506C51.7078 126.525 50.6734 126.533 49.6622 126.534C42.209 126.536 35.9373 126.018 30.8582 124.947C27.0452 124.146 23.9136 123.039 21.3974 121.67C19.5074 120.64 17.957 119.471 16.6529 118.127C14.7053 116.109 13.2628 113.683 12.2381 110.493C11.2196 107.31 10.6668 103.359 10.6692 98.5597C10.668 95.4127 10.9045 91.9065 11.3789 88.0374C12.0603 82.4925 13.5373 78.3868 15.3831 75.2828C16.7718 72.9547 18.3737 71.171 20.1166 69.7464C22.726 67.617 25.6933 66.2905 28.6852 65.4912C31.6696 64.6918 34.6528 64.443 37.0968 64.4442C38.8213 64.4442 40.2749 64.5656 41.2677 64.6833C41.7641 64.7421 42.1453 64.7997 42.388 64.8402C42.5093 64.8598 42.5963 64.8757 42.6453 64.8843L42.6906 64.8929L42.9763 63.4316L42.6772 64.8905L42.6906 64.8929L42.9763 63.4316L42.6772 64.8905C44.1014 65.1822 45.6028 64.8194 46.7354 63.9085C47.8691 62.9964 48.5456 61.6074 48.5652 60.1534L48.0725 60.1461L48.5652 60.1546V60.1534L48.0725 60.1461L48.5652 60.1546C48.5652 60.0517 48.6351 56.2721 49.319 51.2445C49.9894 46.223 51.3229 39.9401 53.5928 35.0155C56.0319 29.6961 58.9514 25.5574 62.1638 22.2804C66.9819 17.3742 72.4949 14.3584 78.2775 12.5121C84.0516 10.672 90.083 10.0492 95.645 10.0504C102.393 10.0504 108.387 10.9564 112.481 11.5718C112.701 11.6037 113.093 11.7104 113.608 11.9629C114.589 12.4263 115.974 13.4083 117.469 14.8193C120.104 17.2835 123.095 20.9957 125.975 25.1222C130.289 31.3181 134.395 38.4481 137.386 43.993C138.881 46.7661 140.107 49.1457 140.94 50.8253C141.369 51.665 141.7 52.3307 141.921 52.7818C142.031 53.0074 142.105 53.1803 142.166 53.2943L142.227 53.4218L142.239 53.4586C142.889 54.8169 144.127 55.8013 145.598 56.1323C147.069 56.4621 148.601 56.0992 149.765 55.1479C155.771 50.2552 161.433 46.9304 166.704 44.8329C171.986 42.734 176.852 41.8513 181.362 41.8501C186.706 41.8526 191.56 43.0895 195.96 45.2104C202.554 48.3844 208.118 53.6192 212.151 59.5441C216.195 65.4495 218.647 72.0401 219.21 77.4686C219.296 78.2593 219.345 79.0354 219.345 79.793C219.333 84.2481 217.948 88.2434 215.595 91.958C213.818 94.7311 211.489 97.3019 208.878 99.5735C204.956 102.982 200.384 105.703 196.315 107.508C194.268 108.411 192.369 109.088 190.763 109.521C189.182 109.959 187.871 110.129 187.282 110.12L187.062 110.113C185.382 109.985 183.618 109.74 181.975 109.321C180.75 109.008 179.61 108.596 178.629 108.095C177.146 107.333 176.068 106.424 175.308 105.242C174.915 104.643 174.597 103.955 174.364 103.091C174.131 102.228 173.972 101.182 173.972 99.8972C173.972 98.6884 174.106 97.2688 174.437 95.6223C175.246 91.562 176.582 88.8834 177.771 87.4809C178.36 86.7711 178.899 86.3702 179.328 86.1483C179.769 85.9276 180.1 85.859 180.468 85.8541C181.019 85.8577 181.791 86.0428 182.87 86.8397C183.924 87.628 185.174 89.0354 186.339 91.1342C187.662 93.5015 190.641 94.3547 193.006 93.0393C195.372 91.7239 196.23 88.7387 194.918 86.3714Z" fill="#F9DAB6"/>
<path fill-rule="evenodd" clip-rule="evenodd" d="M115.079 140.166C115.287 140.446 118.339 144.656 124.185 148.934C127.102 151.069 130.73 153.217 135.069 154.84C139.395 156.463 144.421 157.552 150.034 157.55C153.025 157.551 156.187 157.242 159.484 156.555C176.104 153.083 190.064 145.45 201.205 138.892C206.77 135.611 211.648 132.591 215.656 130.494C217.653 129.445 219.443 128.632 220.914 128.117C222.397 127.596 223.549 127.398 224.247 127.405C229.052 127.398 234.371 128.665 239.997 130.735C248.442 133.821 257.475 138.665 266.692 142.848C271.313 144.937 275.982 146.859 280.726 148.284C285.469 149.705 290.286 150.633 295.188 150.634C300.937 150.648 306.795 149.295 312.262 146.053C317.74 142.82 322.753 137.805 327.276 130.791C328.33 129.163 328.33 127.089 327.276 125.463C326.222 123.836 324.334 122.988 322.41 123.282V123.283C322.239 123.309 320.363 123.59 317.679 123.861C315.007 124.133 311.526 124.393 308.192 124.392C306.477 124.392 304.797 124.322 303.327 124.164C301.868 124.01 300.606 123.755 299.785 123.477C299.417 123.353 299 123.14 298.473 122.732C297.554 122.03 296.389 120.697 295.09 118.845C293.129 116.076 290.886 112.229 287.994 108.041C285.101 103.852 281.51 99.3039 276.718 95.0989C270.369 89.5527 262.132 85.4949 253.038 82.7438C243.944 80.0014 233.967 78.5879 224.039 78.5854L223.929 78.5867C221.22 78.6124 219.051 80.8302 219.075 83.5383C219.1 86.2464 221.318 88.42 224.027 88.393L224.015 87.2663V88.393H224.027L224.015 87.2663V88.393H224.039C233.023 88.3905 242.13 89.6925 250.207 92.1333C258.296 94.5644 265.344 98.1564 270.259 102.477C276.326 107.79 280.26 113.95 283.79 119.505C285.555 122.282 287.222 124.909 289.17 127.239C290.151 128.402 291.205 129.496 292.431 130.46C293.656 131.42 295.078 132.249 296.684 132.781C298.485 133.378 300.348 133.705 302.285 133.916C304.221 134.123 306.219 134.198 308.192 134.199C312.139 134.198 316.024 133.891 318.954 133.59C321.883 133.287 323.844 132.985 323.905 132.976L323.158 128.129L319.04 125.468C315.13 131.523 311.171 135.309 307.273 137.608C303.376 139.9 299.478 140.814 295.188 140.826C290.347 140.834 285.015 139.565 279.377 137.496C270.92 134.409 261.875 129.566 252.67 125.385C248.062 123.296 243.392 121.373 238.661 119.949C233.93 118.528 229.126 117.6 224.247 117.597C221.98 117.603 219.823 118.115 217.678 118.86C213.927 120.18 210.091 122.272 205.863 124.729C199.526 128.415 192.344 132.96 184.254 137.09C176.177 141.22 167.23 144.922 157.486 146.954C154.839 147.504 152.363 147.742 150.034 147.742C145.683 147.741 141.859 146.911 138.501 145.657C133.488 143.78 129.541 140.911 126.894 138.514C125.558 137.319 124.565 136.248 123.915 135.501C123.585 135.127 123.352 134.835 123.205 134.649L123.058 134.454L123.033 134.422L121.513 135.539L123.045 134.438L123.033 134.422L121.513 135.539L123.045 134.438C121.464 132.24 118.4 131.74 116.194 133.321C114 134.903 113.497 137.968 115.079 140.166Z" fill="#F9DAB6"/>
</svg>
