<svg width="329" height="161" viewBox="0 0 329 161" fill="none" xmlns="http://www.w3.org/2000/svg">
<path fill-rule="evenodd" clip-rule="evenodd" d="M134.072 86.3275C135.769 83.2798 137.805 80.785 140.223 78.9596C142.624 77.1427 145.498 76.0001 148.518 76.0026C150.464 75.9989 152.414 76.4868 154.153 77.3904C156.776 78.7487 158.897 80.9542 160.536 83.6893C162.177 86.4366 163.376 89.7503 164.159 93.6537C164.598 95.8481 164.816 97.9077 164.816 99.8533C164.823 103.514 164.018 106.802 162.512 109.521C161.39 111.561 159.9 113.248 158.256 114.569C155.784 116.558 153.015 117.757 150.334 118.535C147.646 119.309 145.012 119.667 142.67 119.848C142.344 119.874 142.023 119.884 141.703 119.884C139.993 119.878 138.265 119.596 136.369 119.129C133.07 118.304 129.306 116.864 125.384 114.834C119.517 111.782 113.314 107.411 108.389 101.599C105.932 98.6923 103.801 95.4117 102.273 91.751C100.745 88.0953 99.8368 84.0497 99.8392 79.7479C99.8392 78.6371 99.8992 77.5105 100.022 76.3704C100.559 71.4458 102.101 66.3213 104.495 61.3219C108.095 53.8339 113.629 46.607 120.911 41.1319C124.552 38.3993 128.635 36.1141 133.114 34.5118C137.592 32.9095 142.466 31.9974 147.623 31.9987C153.425 31.9962 159.571 33.1535 165.903 35.6765C172.237 38.1982 178.758 42.0747 185.414 47.5031L182.316 51.3036L177.891 49.1925C177.937 49.1018 183.065 38.3331 189.952 27.155C193.406 21.5598 197.281 15.8653 201.328 11.2472C203.359 8.93625 205.43 6.88648 207.635 5.23391C208.741 4.40763 209.883 3.68064 211.104 3.08851C212.325 2.50006 213.631 2.04279 215.049 1.82825C219.159 1.21405 225.738 0.198971 233.341 0.198971C241.706 0.203875 251.424 1.41143 260.68 5.91553C265.301 8.16636 269.786 11.2521 273.821 15.3675C277.858 19.4806 281.434 24.6148 284.305 30.8855C287.26 37.3658 288.66 44.518 289.418 50.145C290.165 55.7635 290.222 59.8398 290.225 59.9759L285.322 60.0421L284.337 55.2388C284.57 55.1922 287.527 54.594 291.888 54.5915C294.636 54.5928 297.945 54.8306 301.489 55.6385C304.145 56.2466 306.935 57.177 309.688 58.5918C313.813 60.7029 317.851 63.9479 321.007 68.6175C324.172 73.2822 326.423 79.2979 327.339 86.8007C327.852 90.9885 328.122 94.8821 328.122 98.517C328.12 105.075 327.249 110.823 325.222 115.833C323.706 119.582 321.51 122.89 318.678 125.601C316.559 127.637 314.102 129.335 311.371 130.715C307.27 132.787 302.57 134.162 297.255 135.041C291.937 135.918 285.989 136.297 279.323 136.298C278.251 136.298 277.161 136.288 276.051 136.269L276.137 131.366L280.612 133.371C280.459 133.688 277.504 140.296 270.961 147.094C267.686 150.487 263.491 153.931 258.265 156.547C253.045 159.163 246.775 160.921 239.608 160.915C237.639 160.915 235.605 160.785 233.508 160.509C227.843 159.765 223.054 158.188 219.095 155.97C216.127 154.308 213.636 152.288 211.613 150.06C208.571 146.719 206.592 142.935 205.392 139.221C204.19 135.499 203.745 131.837 203.743 128.551C203.744 126.06 203.999 123.787 204.422 121.807C205.473 116.921 207.749 112.538 211.083 109.244C212.75 107.601 214.692 106.238 216.862 105.284C219.03 104.33 221.429 103.797 223.913 103.8C225.273 103.798 226.655 103.957 228.033 104.275C230.134 104.764 232.224 105.605 234.297 106.701C237.396 108.356 240.429 110.573 242.902 113.328C244.134 114.71 245.229 116.237 246.057 117.963C246.882 119.684 247.445 121.639 247.446 123.755C247.457 125.829 246.86 128.013 245.687 129.908C244.518 131.814 242.85 133.426 240.803 134.79C238.55 136.292 235.507 135.683 234.004 133.429C232.503 131.176 233.112 128.132 235.365 126.629C236.501 125.871 237.061 125.219 237.327 124.784C237.587 124.338 237.63 124.106 237.641 123.755C237.641 123.519 237.599 123.219 237.472 122.832C237.256 122.159 236.745 121.239 235.946 120.276C234.757 118.826 232.953 117.313 231.056 116.145C229.173 114.967 227.165 114.131 225.828 113.831C225.151 113.676 224.518 113.607 223.913 113.607C222.81 113.608 221.795 113.831 220.805 114.264C219.327 114.912 217.895 116.069 216.687 117.714C215.48 119.354 214.52 121.468 214.009 123.862C213.742 125.108 213.547 126.747 213.548 128.551C213.548 130.673 213.813 133.027 214.461 135.337C214.946 137.07 215.644 138.779 216.596 140.388C218.033 142.799 220.012 144.994 222.89 146.819C225.77 148.637 229.597 150.1 234.787 150.785C236.469 151.006 238.073 151.107 239.608 151.109C245.188 151.103 249.858 149.78 253.879 147.775C259.895 144.775 264.421 140.134 267.395 136.201C268.881 134.241 269.978 132.471 270.687 131.221C271.041 130.596 271.298 130.101 271.461 129.777C271.542 129.615 271.6 129.497 271.633 129.425L271.666 129.356L271.668 129.349L274.161 130.481L271.664 129.362L271.668 129.349L274.161 130.481L271.664 129.362C272.468 127.566 274.256 126.428 276.223 126.462C277.278 126.481 278.312 126.491 279.323 126.491C286.777 126.493 293.048 125.974 298.128 124.903C301.94 124.102 305.071 122.997 307.587 121.626C309.479 120.597 311.029 119.427 312.332 118.083C314.28 116.065 315.723 113.639 316.748 110.449C317.767 107.267 318.319 103.317 318.317 98.517C318.318 95.37 318.082 91.8638 317.607 87.9935C316.924 82.4486 315.448 78.3429 313.602 75.2388C312.213 72.9108 310.611 71.127 308.868 69.7025C306.259 67.573 303.29 66.2453 300.3 65.446C297.315 64.6479 294.332 64.3978 291.888 64.3991C290.164 64.3991 288.71 64.5204 287.717 64.6381C287.221 64.697 286.84 64.7546 286.597 64.795C286.476 64.8147 286.39 64.8306 286.341 64.8404L286.295 64.8478L286.009 63.3864L286.309 64.8453L286.295 64.8478L286.009 63.3864L286.309 64.8453C284.885 65.1383 283.383 64.7742 282.25 63.8633C281.117 62.9512 280.44 61.5635 280.421 60.1083L280.914 60.1021L280.421 60.1095V60.1083L280.914 60.1021L280.421 60.1095C280.42 60.0077 280.351 56.2269 279.667 51.2006C278.995 46.1791 277.662 39.8962 275.392 34.9716C272.953 29.6522 270.033 25.5122 266.822 22.2353C262.004 17.3303 256.49 14.3145 250.707 12.4682C244.933 10.6281 238.903 10.0053 233.341 10.0065C226.589 10.0065 220.595 10.9125 216.504 11.5279C216.281 11.5598 215.891 11.6664 215.372 11.919C214.395 12.3824 213.012 13.3644 211.517 14.7754C208.879 17.2396 205.886 20.9517 203.016 25.0782C198.696 31.2741 194.592 38.4042 191.601 43.9491C190.105 46.7222 188.883 49.1018 188.04 50.7813C187.617 51.6211 187.29 52.2855 187.069 52.7379C186.959 52.9635 186.875 53.1351 186.82 53.2504L186.759 53.3779L186.74 53.4134C186.093 54.773 184.859 55.7574 183.39 56.0872C181.92 56.4182 180.384 56.0553 179.217 55.104C173.219 50.2112 167.548 46.8865 162.276 44.7889C157.001 42.6901 152.129 41.8074 147.623 41.8062C142.285 41.8086 137.432 43.0456 133.029 45.1665C126.435 48.3405 120.868 53.5765 116.835 59.5002C112.796 65.4056 110.343 71.9962 109.771 77.4247V77.4235C109.685 78.2154 109.644 78.9902 109.644 79.7479C109.651 84.2029 111.033 88.1995 113.395 91.9129C115.164 94.6872 117.491 97.258 120.108 99.5296C124.027 102.938 128.6 105.659 132.677 107.465C134.711 108.369 136.622 109.045 138.219 109.477C139.805 109.915 141.116 110.086 141.703 110.076L141.917 110.07C143.601 109.942 145.373 109.698 147.007 109.277C148.233 108.964 149.378 108.553 150.358 108.051C151.839 107.289 152.914 106.38 153.68 105.198C154.065 104.599 154.383 103.911 154.622 103.047C154.859 102.183 155.011 101.138 155.011 99.8533C155.011 98.6445 154.875 97.2236 154.545 95.5772C153.742 91.5181 152.406 88.8394 151.216 87.437C150.622 86.7271 150.084 86.3263 149.652 86.1044C149.216 85.8837 148.887 85.815 148.518 85.8101C147.968 85.8138 147.191 85.9989 146.119 86.7958C145.063 87.5841 143.805 88.9914 142.643 91.0903C141.328 93.4576 138.343 94.3108 135.976 92.9954C133.61 91.6812 132.757 88.6948 134.072 86.3275Z" fill="#F9DAB6"/>
<path fill-rule="evenodd" clip-rule="evenodd" d="M213.901 140.121C213.694 140.401 210.647 144.612 204.804 148.89C201.881 151.024 198.249 153.173 193.921 154.796C189.596 156.419 184.567 157.507 178.952 157.506C175.958 157.506 172.801 157.197 169.506 156.51C152.879 153.038 138.924 145.406 127.78 138.848C122.217 135.566 117.341 132.547 113.329 130.45C111.327 129.401 109.544 128.588 108.068 128.073C106.594 127.552 105.441 127.354 104.74 127.361C99.9272 127.354 94.6152 128.621 88.9919 130.691C80.5484 133.778 71.5092 138.621 62.291 142.804C57.6752 144.893 53.0018 146.815 48.2598 148.24C43.519 149.661 38.6935 150.588 33.8019 150.59C28.05 150.602 22.1853 149.251 16.7201 146.009C11.2451 142.776 6.23581 137.759 1.70702 130.746C0.65541 129.119 0.656624 127.045 1.71069 125.419C2.76352 123.792 4.65596 122.944 6.57043 123.238L6.58143 123.239C6.74689 123.265 8.62219 123.546 11.3002 123.817C13.9758 124.089 17.4628 124.349 20.7941 124.348C22.5113 124.348 24.1867 124.278 25.6551 124.121C27.1197 123.966 28.3834 123.711 29.207 123.433C29.5735 123.309 29.989 123.096 30.5123 122.688C31.4255 121.986 32.5996 120.653 33.8964 118.801C35.8586 116.031 38.0967 112.185 40.988 107.997C43.8854 103.808 47.4717 99.2587 52.2701 95.055C58.6166 89.5076 66.848 85.4509 75.9424 82.6999C85.0392 79.9587 95.0209 78.5452 104.936 78.5428H105.02C107.727 78.5489 109.917 80.7495 109.911 83.4576C109.905 86.1657 107.704 88.3564 104.997 88.3503H104.936C95.961 88.3478 86.8544 89.6486 78.7724 92.0894C70.6856 94.5205 63.6454 98.1112 58.7305 102.431C52.6635 107.745 48.7292 113.905 45.1994 119.46C43.4246 122.238 41.7663 124.864 39.8175 127.194C38.8406 128.358 37.7817 129.451 36.5511 130.415C35.3243 131.375 33.9086 132.203 32.3079 132.737C30.5062 133.334 28.6358 133.661 26.6993 133.872C24.7652 134.079 22.7711 134.155 20.7941 134.155C16.8451 134.154 12.9646 133.849 10.0353 133.546C7.10723 133.243 5.13887 132.94 5.08004 132.932L5.8252 128.084L9.94345 125.424C13.8582 131.479 17.8145 135.265 21.7072 137.564C25.6085 139.856 29.5109 140.77 33.8019 140.783C38.6433 140.79 43.9737 139.521 49.6092 137.452C58.0687 134.365 67.1103 129.522 76.3187 125.341C80.9283 123.252 85.5932 121.328 90.3242 119.905C95.054 118.484 99.8647 117.555 104.74 117.553C107.01 117.56 109.158 118.07 111.305 118.815C115.052 120.137 118.888 122.228 123.126 124.685C129.462 128.371 136.643 132.916 144.726 137.046C152.803 141.176 161.749 144.877 171.505 146.91C174.152 147.46 176.63 147.698 178.952 147.698C183.305 147.697 187.13 146.867 190.48 145.613C195.499 143.735 199.442 140.866 202.095 138.47C203.421 137.275 204.423 136.204 205.071 135.456C205.396 135.083 205.632 134.79 205.778 134.605L205.929 134.41L205.952 134.378L207.472 135.494L205.941 134.393L205.952 134.378L207.472 135.494L205.941 134.393C207.522 132.195 210.587 131.695 212.784 133.276C214.983 134.858 215.483 137.922 213.901 140.121Z" fill="#F9DAB6"/>
</svg>
