<svg width="471" height="207" viewBox="0 0 471 207" fill="none" xmlns="http://www.w3.org/2000/svg">
<path fill-rule="evenodd" clip-rule="evenodd" d="M84.3836 120.296C83.7499 120.657 82.7449 121.078 81.6467 121.373C80.5485 121.672 79.3486 121.85 78.2896 121.847C77.4721 121.848 76.7453 121.744 76.1889 121.572C75.7685 121.445 75.4449 121.286 75.1899 121.112C74.8112 120.839 74.5453 120.568 74.2572 119.968C73.979 119.368 73.7094 118.375 73.7081 116.789C73.7081 116.202 73.7461 115.537 73.8319 114.795C74.1959 111.669 74.9313 109.203 75.853 107.265C77.2454 104.36 79.014 102.605 80.9321 101.452C82.8503 100.311 84.9927 99.8059 87.0261 99.8071C87.3999 99.8071 87.7676 99.823 88.1243 99.8561H88.1267C89.633 99.9922 91.5622 100.338 93.5147 100.99C94.9806 101.478 96.4624 102.136 97.8278 102.984C99.882 104.261 101.66 105.92 102.976 108.18C104.281 110.448 105.191 113.382 105.2 117.531C105.2 118.374 105.161 119.268 105.076 120.212C104.68 124.632 103.558 128.499 101.853 131.853C99.29 136.877 95.4255 140.801 90.3966 143.611C85.3727 146.411 79.1549 148.056 72.0498 148.231H72.051C71.8733 148.235 71.6919 148.237 71.5093 148.238C67.8042 148.244 63.3121 147.298 58.7662 145.461C51.9344 142.72 45.0046 137.996 39.9745 132.136C37.4521 129.209 35.3991 126.009 33.9884 122.648C32.5764 119.281 31.7994 115.764 31.7981 112.089C31.7969 110.646 31.9452 108.63 32.2982 106.287C32.9135 102.181 34.149 97.0463 36.1762 91.7502C39.2146 83.7914 44.0375 75.5065 51.0286 69.3621C54.5279 66.2825 58.5615 63.7154 63.2692 61.8973C67.9794 60.0817 73.376 59.0065 79.6673 59.0041C82.1602 59.0041 84.7929 59.1745 87.5752 59.5398C90.1858 59.8831 92.6004 58.1043 93.0453 55.5077L91.6174 55.2625L93.044 55.5187L93.0453 55.5077L91.6174 55.2625L93.044 55.5187C93.0637 55.3655 94.6116 47.0389 100.266 37.761C103.091 33.1159 106.923 28.2329 112.082 23.9152C117.247 19.5974 123.729 15.8264 132.021 13.3831C138.372 11.516 144.173 10.7694 149.433 10.7694C160.874 10.7706 169.845 14.3112 176.027 17.9461C179.111 19.7617 181.483 21.5994 183.047 22.981C183.828 23.6688 184.409 24.2474 184.75 24.6152C184.919 24.7954 185.029 24.9278 185.044 24.9474L185.57 24.5294L185.031 24.9291L185.044 24.9474L185.57 24.5294L185.031 24.9291L187.436 23.1478L184.892 24.7219C184.973 24.8518 185.011 24.9021 185.031 24.9291L187.436 23.1478L184.892 24.7219L188.461 22.5152L184.729 24.4338C184.8 24.5698 184.852 24.6557 184.892 24.7219L188.461 22.5152L184.729 24.4338L188.857 22.3104L184.454 23.7803C184.568 24.115 184.659 24.294 184.729 24.4338L188.857 22.3104L184.454 23.7803C185.049 25.5604 186.609 26.8477 188.47 27.0904C190.33 27.3331 192.169 26.4909 193.201 24.9242L190.506 23.149L193.185 24.9474L193.201 24.9242L190.506 23.149L193.185 24.9474L193.153 24.9266L193.185 24.9487V24.9474L193.153 24.9266L193.185 24.9487C193.264 24.8273 195.903 21.0281 201.545 17.3257C204.369 15.4709 207.943 13.6308 212.367 12.2467C216.793 10.8638 222.075 9.93211 228.352 9.93088C231.527 9.93088 234.955 10.1699 238.657 10.7155C247.523 12.0211 255.948 13.6504 263.588 16.052C269.32 17.8529 274.606 20.0841 279.348 22.9124C286.462 27.1676 292.368 32.7064 296.958 40.4568C301.537 48.2097 304.8 58.271 306.151 71.5749C306.378 73.8049 306.484 75.9331 306.484 77.9608C306.478 86.3499 304.673 93.0203 301.775 98.4573C299.596 102.534 296.781 105.931 293.52 108.78C288.636 113.05 282.722 116.066 276.668 117.992C270.622 119.921 264.447 120.75 259.23 120.747C255.79 120.751 252.76 120.382 250.564 119.818C242.911 117.881 234.948 113.653 229.156 108.016C226.253 105.201 223.886 102.053 222.265 98.7001C220.643 95.3398 219.748 91.7907 219.745 87.9952C219.746 86.8869 219.822 85.7566 219.985 84.5993C221.155 76.1268 225.745 67.6065 232.197 61.3738C235.415 58.2551 239.076 55.7075 242.929 53.9618C246.786 52.2136 250.822 51.2635 254.878 51.2635C255.626 51.2635 256.375 51.2954 257.123 51.3616C261.581 51.7514 265.547 52.4281 268.915 53.3783C271.442 54.0905 273.627 54.9548 275.443 55.9368C278.178 57.4177 280.047 59.1156 281.277 61.0428C282.497 62.9786 283.185 65.2233 283.197 68.2722C283.197 69.1635 283.133 70.1209 282.997 71.147C282.801 72.6071 282.262 74.0072 281.399 75.3496C280.113 77.3552 278.062 79.1818 275.704 80.4458C273.354 81.7195 270.725 82.4061 268.486 82.3975C267.311 82.3988 266.247 82.2185 265.341 81.8949C263.977 81.3934 262.953 80.6517 262.069 79.3584C261.2 78.0613 260.46 76.0716 260.313 72.9908C260.185 70.2864 257.891 68.195 255.186 68.3225C252.481 68.4488 250.391 70.7449 250.517 73.4506C250.657 76.4247 251.207 79.1169 252.174 81.5025C252.897 83.2887 253.86 84.8972 255.02 86.2776C256.759 88.3507 258.944 89.8794 261.269 90.8332C263.599 91.7931 266.057 92.2051 268.486 92.2051C271.237 92.2038 273.964 91.684 276.562 90.7633C280.457 89.3768 284.088 87.0928 287.002 84.0157C288.457 82.4759 289.728 80.7315 290.719 78.7908C291.708 76.8526 292.414 74.7145 292.716 72.4429C292.905 71.0208 293.002 69.6305 293.002 68.2722C293.009 64.1628 292.093 60.3146 290.268 56.9923C288.906 54.5 287.059 52.3288 284.88 50.512C281.602 47.7806 277.609 45.8203 273.1 44.3945C268.585 42.9712 263.526 42.0787 257.98 41.5908C256.943 41.5001 255.908 41.456 254.878 41.456C249.281 41.456 243.862 42.7702 238.882 45.0296C231.408 48.4242 224.886 53.9115 219.894 60.55C214.91 67.1934 211.434 75.0173 210.275 83.236C210.05 84.8408 209.939 86.4309 209.939 87.9952C209.937 93.366 211.237 98.4303 213.439 102.972C216.748 109.795 222.013 115.467 228.106 119.899C234.21 124.33 241.169 127.539 248.143 129.322C251.369 130.141 255.11 130.551 259.23 130.555C264.768 130.552 270.978 129.795 277.278 128.042C282.002 126.726 286.773 124.848 291.311 122.276C298.111 118.427 304.404 112.979 308.969 105.603C313.542 98.2379 316.3 88.9968 316.289 77.9608C316.289 75.5874 316.164 73.1294 315.907 70.5855C314.611 57.8051 311.622 47.2841 307.146 38.6253C303.793 32.1339 299.601 26.7103 294.774 22.2381C287.532 15.52 278.927 10.968 269.647 7.7303C260.359 4.49014 250.365 2.53108 240.086 1.01336C235.929 0.400394 232.02 0.123352 228.352 0.123352C220.867 0.123352 214.396 1.28062 208.93 3.04843C200.725 5.70014 194.808 9.70777 190.934 13.0914C187.058 16.4799 185.201 19.2431 185.01 19.5325L189.105 22.2283L193.756 20.6762C193.594 20.2067 193.469 19.9873 193.369 19.7985C193.173 19.4491 193.045 19.2787 192.919 19.1034C192.68 18.7834 192.46 18.5235 192.194 18.2244C191.702 17.6751 191.072 17.034 190.27 16.2911C187.476 13.7092 182.601 9.92474 175.728 6.72626C168.864 3.5339 159.989 0.959432 149.433 0.961884C143.241 0.960658 136.481 1.84702 129.255 3.97526C119.496 6.84151 111.659 11.4131 105.499 16.638C96.2491 24.4804 90.7619 33.7117 87.5629 40.9668C84.3652 48.2318 83.4337 53.5621 83.3822 53.8478L88.2137 54.6777L88.8523 49.8169C85.6693 49.3976 82.6076 49.1966 79.6673 49.1966C68.3655 49.1843 58.841 52.2111 51.1917 57.0315C45.4482 60.6395 40.7552 65.2135 36.9643 70.1614C31.2772 77.5918 27.5819 85.8534 25.263 93.328C24.1047 97.0671 23.2933 100.613 22.7663 103.786C22.2405 106.965 21.9929 109.757 21.9929 112.089C21.9929 118.864 23.9344 125.196 27.0573 130.752C31.7565 139.097 39.0307 145.798 46.9693 150.524C50.9453 152.884 55.099 154.746 59.2442 156.036C63.3906 157.322 67.5284 158.042 71.5093 158.044C71.7691 158.044 72.029 158.042 72.2888 158.036H72.29C77.9379 157.897 83.2842 156.975 88.1819 155.286C95.5248 152.759 101.871 148.472 106.527 142.624C111.192 136.785 114.107 129.429 114.842 121.085C114.951 119.863 115.005 118.679 115.005 117.531C115.01 112.525 113.972 108.175 112.165 104.574C110.816 101.872 109.05 99.6085 107.094 97.7769C104.153 95.0247 100.821 93.2287 97.6623 92.0542C94.4952 90.881 91.4911 90.3171 89.0141 90.0891H89.0165C88.3596 90.029 87.6965 89.9996 87.0261 89.9996C84.5993 89.9996 82.072 90.3967 79.5876 91.2917C75.8653 92.6243 72.2435 95.1313 69.4735 98.8987C66.6937 102.662 64.7927 107.599 64.0929 113.663C63.9666 114.745 63.9029 115.785 63.9029 116.789C63.9029 119.186 64.2669 121.386 65.0464 123.36C65.6286 124.836 66.451 126.171 67.4536 127.283C68.9587 128.96 70.8352 130.09 72.7092 130.75C74.5918 131.414 76.4818 131.653 78.2896 131.655C80.3781 131.652 82.371 131.335 84.2058 130.839C86.0431 130.34 87.7124 129.672 89.1906 128.845C91.55 127.517 92.3871 124.527 91.0597 122.166C89.7323 119.806 86.7442 118.969 84.3836 120.296Z" fill="#F6F2A1"/>
<path fill-rule="evenodd" clip-rule="evenodd" d="M97.8045 32.1976C97.59 32.075 94.0087 30.0264 88.0091 27.9852C82.012 25.9477 73.5832 23.9102 63.6946 23.9078C56.4436 23.9078 48.4046 25.0136 40.0664 28.0367C34.6993 29.9847 29.5969 33.0754 24.9308 36.9972C17.936 42.8841 11.9034 50.6492 7.56211 59.5042C3.2282 68.3579 0.585693 78.3249 0.585693 88.5958C0.585693 95.7798 1.88979 103.111 4.81788 110.203C7.74229 117.295 12.2895 124.132 18.6457 130.331L22.0689 126.821L17.3208 125.603C17.2497 125.89 16.0485 130.641 16.0449 137.784C16.0461 142.416 16.5535 148.061 18.2547 154.125C19.5294 158.669 21.4806 163.449 24.3879 168.163C28.7402 175.237 35.2619 182.134 44.632 187.839C54.0033 193.552 66.1863 198.093 81.9397 200.719C88.2628 201.772 94.0847 202.236 99.4273 202.236C116.646 202.248 128.875 197.385 136.718 192.372C144.573 187.363 148.071 182.291 148.35 181.879L144.284 179.14L140.422 182.16C140.646 182.44 145.432 188.532 154.572 194.661C159.142 197.722 164.809 200.788 171.529 203.094C178.248 205.4 186.026 206.936 194.744 206.936C199.04 206.936 203.561 206.563 208.291 205.734C218.703 203.908 227.428 201.5 234.79 198.439C240.308 196.144 245.059 193.476 249.126 190.414C255.23 185.826 259.753 180.322 262.942 174.154C266.139 167.984 268.033 161.203 269.197 153.913C269.511 151.948 269.662 150.057 269.662 148.243C269.667 143.869 268.766 139.932 267.238 136.547C266.094 134.006 264.611 131.778 262.958 129.847C260.472 126.949 257.614 124.711 254.816 122.923C252.017 121.138 249.263 119.798 246.942 118.749C245.515 118.105 243.996 117.675 242.38 117.385C240.766 117.095 239.056 116.953 237.273 116.952C234.135 116.954 230.767 117.394 227.388 118.37C222.337 119.835 217.204 122.525 213.189 126.963C211.188 129.176 209.493 131.824 208.297 134.871C207.098 137.919 206.402 141.353 206.31 145.115C206.302 145.465 206.297 145.812 206.297 146.155C206.296 150.51 207.002 154.267 208.279 157.443C209.232 159.824 210.508 161.867 211.977 163.547C214.179 166.075 216.788 167.763 219.315 168.797C221.85 169.832 224.294 170.247 226.461 170.251C226.784 170.251 227.101 170.241 227.415 170.223H227.419C229.192 170.11 231.017 169.873 232.826 169.447C234.183 169.125 235.534 168.699 236.848 168.11C238.806 167.228 240.739 165.969 242.261 164.051C243.017 163.098 243.65 161.981 244.074 160.755C244.501 159.53 244.715 158.207 244.714 156.87C244.714 156.062 244.638 155.247 244.494 154.431C243.949 151.36 242.808 148.673 240.893 146.602C239.94 145.574 238.788 144.722 237.503 144.147C236.221 143.568 234.818 143.275 233.44 143.278C232.087 143.278 230.765 143.551 229.539 144.028C228.312 144.505 227.177 145.184 226.141 146.012C224.027 147.705 223.685 150.79 225.377 152.905C227.068 155.02 230.154 155.362 232.268 153.67C232.608 153.397 232.894 153.246 233.092 153.169C233.292 153.093 233.399 153.086 233.44 153.085L233.486 153.093C233.505 153.106 233.671 153.166 233.965 153.609C234.25 154.044 234.616 154.863 234.837 156.135C234.89 156.433 234.909 156.675 234.909 156.87C234.893 157.446 234.806 157.602 234.644 157.869C234.513 158.061 234.282 158.31 233.87 158.592C233.261 159.016 232.248 159.47 230.997 159.796C229.75 160.127 228.283 160.343 226.806 160.434H226.811C226.706 160.44 226.589 160.443 226.461 160.443C225.699 160.447 224.586 160.294 223.46 159.886C222.609 159.581 221.744 159.143 220.928 158.541C219.704 157.632 218.573 156.385 217.667 154.459C216.771 152.534 216.105 149.876 216.102 146.155C216.102 145.896 216.106 145.631 216.112 145.361C216.208 141.738 217.03 138.934 218.272 136.636C219.207 134.913 220.396 133.464 221.793 132.221C223.884 130.36 226.469 128.976 229.201 128.074C231.927 127.169 234.788 126.757 237.273 126.759C238.525 126.759 239.68 126.864 240.651 127.038C241.621 127.209 242.408 127.459 242.903 127.686C246.653 129.369 251.072 131.702 254.338 134.967C255.975 136.598 257.333 138.433 258.296 140.573C259.257 142.717 259.852 145.183 259.857 148.243C259.857 149.512 259.751 150.882 259.515 152.368C258.581 158.229 257.166 163.408 255.061 167.958C253.48 171.375 251.515 174.448 249.016 177.267C245.268 181.487 240.285 185.175 233.391 188.348C226.505 191.516 217.718 194.127 206.598 196.074C202.423 196.806 198.474 197.128 194.744 197.128C187.178 197.127 180.505 195.803 174.709 193.816C166.022 190.839 159.303 186.344 154.788 182.605C152.531 180.738 150.829 179.064 149.711 177.882C149.153 177.293 148.74 176.824 148.479 176.519C148.348 176.366 148.254 176.252 148.198 176.184L148.143 176.117L148.138 176.11L146.073 177.74L148.147 176.119L148.138 176.11L146.073 177.74L148.147 176.119C147.178 174.88 145.682 174.184 144.111 174.239C142.538 174.295 141.096 175.096 140.217 176.4L142.921 178.222L140.235 176.374L140.217 176.4L142.921 178.222L140.235 176.374L140.343 176.448L140.237 176.373L140.235 176.374L140.343 176.448L140.237 176.373C140.153 176.495 137.293 180.518 130.841 184.48C124.377 188.44 114.339 192.416 99.4273 192.428C94.6497 192.428 89.3708 192.015 83.5526 191.045C70.4308 188.857 60.3228 185.315 52.546 181.083C46.7107 177.908 42.1807 174.348 38.6263 170.627C33.3021 165.046 30.1436 159.085 28.2695 153.367C26.4016 147.656 25.8489 142.187 25.8501 137.784C25.8501 134.768 26.1075 132.26 26.36 130.543C26.485 129.683 26.6088 129.021 26.697 128.592C26.7411 128.378 26.7755 128.221 26.7975 128.128L26.8196 128.034L26.822 128.025L24.2972 127.392L26.8183 128.038L26.822 128.025L24.2972 127.392L26.8183 128.038C27.2535 126.341 26.7473 124.534 25.4934 123.311C20.038 117.984 16.2949 112.302 13.8816 106.46C11.4719 100.62 10.3921 94.6017 10.3909 88.5958C10.3799 77.17 14.3669 65.7663 20.5835 56.5031C23.6856 51.8739 27.3331 47.7879 31.2405 44.5048C35.1454 41.2181 39.3078 38.7404 43.4076 37.2583C50.5678 34.6629 57.4327 33.7165 63.6946 33.7153C72.2227 33.7129 79.6256 35.4917 84.853 37.2718C87.4674 38.1593 89.5338 39.0457 90.9212 39.6942C91.615 40.0191 92.1383 40.2839 92.4741 40.4617C92.6433 40.5487 92.7646 40.6149 92.8369 40.6553L92.9105 40.6958L93.0355 40.4739L92.908 40.6946L92.9105 40.6958L93.0355 40.4739L92.908 40.6946C95.2539 42.0468 98.2519 41.2414 99.6038 38.8949C100.956 36.5485 100.15 33.5498 97.8045 32.1976Z" fill="#F6F2A1"/>
<path fill-rule="evenodd" clip-rule="evenodd" d="M314.02 72.7628L312.906 71.4805L314.013 72.769L314.02 72.7628L312.906 71.4805L314.013 72.769C314.067 72.7199 317.95 69.4037 324.071 66.1783C327.13 64.5625 330.743 62.9712 334.698 61.7943C338.654 60.6162 342.943 59.8549 347.388 59.8549C351.907 59.8574 356.581 60.6309 361.361 62.5777C366.14 64.5306 371.049 67.6654 375.982 72.5458C379.799 76.3279 382.254 80.1761 383.782 83.8674C385.307 87.5575 385.904 91.1078 385.904 94.272C385.905 96.5571 385.589 98.6388 385.098 100.377C384.613 102.113 383.938 103.507 383.34 104.37C382.412 105.721 381.56 106.692 380.714 107.423C380.076 107.973 379.436 108.4 378.686 108.775C377.563 109.33 376.151 109.774 374.179 110.078C372.213 110.382 369.712 110.533 366.586 110.532C366.03 110.532 365.452 110.527 364.854 110.518C363.429 110.491 362.31 110.149 361.266 109.564C360.486 109.124 359.757 108.527 359.089 107.784C358.086 106.675 357.237 105.228 356.652 103.672C356.064 102.12 355.747 100.467 355.706 99.0494C355.701 98.8594 355.698 98.6756 355.698 98.4978C355.696 96.9679 355.906 95.8951 356.157 95.2172C356.347 94.7023 356.543 94.3994 356.749 94.1616C357.058 93.8196 357.435 93.5376 358.251 93.2581C359.055 92.9872 360.275 92.7959 361.855 92.7984C362.705 92.7984 363.496 92.8941 364.155 93.051C365.147 93.2766 365.801 93.6737 365.954 93.8282L365.997 93.8687L366.005 93.8785L366.488 93.491L365.916 93.7032L366.005 93.8785L366.488 93.491L365.916 93.7032L366.837 93.3611L365.852 93.3623L365.916 93.7032L366.837 93.3611L365.852 93.3623H366.445L365.857 93.279L365.852 93.3623H366.445L365.857 93.279L366.069 93.3084L365.859 93.2667L365.857 93.279L366.069 93.3084L365.859 93.2667L365.819 93.3807C365.722 93.6284 365.323 94.3051 364.359 95.2012C362.385 97.0536 362.284 100.156 364.136 102.133C365.988 104.109 369.09 104.208 371.066 102.356C372.429 101.075 373.532 99.736 374.345 98.2477C375.152 96.7667 375.66 95.0934 375.657 93.3623C375.67 91.5234 375.053 89.7188 374.093 88.3347C373.378 87.2865 372.498 86.4468 371.559 85.7713C370.146 84.7587 368.591 84.093 366.964 83.6468C365.335 83.2054 363.62 82.9921 361.855 82.9908C359.801 82.9933 357.814 83.1895 355.886 83.7276C354.444 84.1322 353.032 84.7391 351.739 85.6156C349.79 86.9164 348.192 88.8619 347.245 91.0992C346.284 93.3427 345.895 95.8142 345.892 98.4978C345.892 98.7773 345.897 99.0593 345.906 99.3437C345.977 101.641 346.403 103.984 347.173 106.278C348.333 109.708 350.261 113.064 353.179 115.733C354.637 117.061 356.352 118.204 358.301 119.013C360.247 119.824 362.423 120.293 364.712 120.324C365.351 120.333 365.976 120.339 366.586 120.339C369.632 120.338 372.309 120.217 374.761 119.9C376.6 119.662 378.313 119.312 379.936 118.803C382.365 118.044 384.587 116.892 386.498 115.364C388.416 113.838 390 111.994 391.419 109.926C392.753 107.979 393.791 105.668 394.536 103.036C395.276 100.405 395.708 97.4533 395.709 94.272C395.71 89.8758 394.876 85.0358 392.842 80.1185C390.812 75.2025 387.579 70.2252 382.88 65.5752C377.124 59.8733 371.094 55.9539 365.065 53.4972C359.037 51.0355 353.035 50.0449 347.388 50.0474C341.736 50.0486 336.435 51.0257 331.677 52.4612C324.539 54.6189 318.604 57.8002 314.403 60.4495C310.202 63.1024 307.736 65.2331 307.592 65.3569C305.547 67.1333 305.329 70.2301 307.104 72.2749C308.879 74.3198 311.975 74.5392 314.02 72.7641" fill="#F6F2A1"/>
<path fill-rule="evenodd" clip-rule="evenodd" d="M391.168 99.4822L391.049 97.8701L391.161 99.4834L391.168 99.4822L391.049 97.8701L391.161 99.4834C391.194 99.4809 392.208 99.4111 393.969 99.4111C399.293 99.4025 411.438 100.076 423.94 104.972C430.194 107.415 436.535 110.896 442.257 115.828C447.981 120.766 453.109 127.144 456.996 135.57C459.838 141.745 460.973 147.345 460.975 152.318C460.974 156.438 460.193 160.141 458.877 163.409C456.906 168.307 453.701 172.233 450.116 174.891C446.536 177.56 442.603 178.889 439.396 178.873C438.095 178.873 436.912 178.668 435.853 178.286C434.267 177.7 432.93 176.756 431.744 175.163C430.569 173.571 429.557 171.254 429.053 167.941L424.206 168.678L421.026 172.411C421.155 172.516 423.15 174.22 426.08 176.003C427.548 176.893 429.252 177.809 431.145 178.541C433.041 179.265 435.135 179.84 437.483 179.849C438.602 179.849 439.785 179.708 440.971 179.343C442.157 178.98 443.341 178.383 444.39 177.555C445.562 176.626 446.383 175.552 447.067 174.409C448.08 172.692 448.781 170.772 449.28 168.66C449.772 166.55 450.041 164.251 450.043 161.835C450.041 159.018 449.674 156.041 448.798 153.072C448.142 150.847 447.197 148.627 445.894 146.518C443.946 143.355 441.165 140.452 437.521 138.288C433.879 136.117 429.421 134.702 424.207 134.257C422.529 134.113 420.906 134.041 419.334 134.041C414.317 134.039 409.803 134.773 405.723 136.119C402.151 137.294 398.925 138.928 395.967 140.857C390.781 144.24 386.4 148.473 381.982 152.95C375.359 159.683 368.632 167.012 359.279 173.66C349.925 180.301 337.938 186.338 320.604 190.263C315.784 191.353 310.107 191.935 304.197 191.933C294.739 191.94 284.671 190.438 276.436 187.484C272.319 186.013 268.667 184.184 265.767 182.096C262.858 180.004 260.729 177.685 259.423 175.223C258.152 172.831 255.183 171.924 252.793 173.196C250.402 174.467 249.494 177.436 250.765 179.827C252.946 183.925 256.205 187.299 260.043 190.058C265.816 194.197 272.934 197.049 280.562 198.945C288.191 200.833 296.342 201.739 304.197 201.74C310.743 201.739 317.079 201.112 322.763 199.829C338.878 196.194 351.102 190.684 360.804 184.462C368.079 179.8 373.929 174.756 378.972 169.909C382.753 166.273 386.087 162.751 389.229 159.569C393.944 154.784 398.222 150.82 402.846 148.131C405.164 146.781 407.571 145.728 410.25 144.995C412.931 144.263 415.895 143.849 419.334 143.849C420.61 143.849 421.952 143.907 423.366 144.028C426.886 144.333 429.599 145.169 431.731 146.284C434.917 147.965 436.923 150.272 438.288 153.003C439.639 155.723 440.241 158.897 440.237 161.835C440.241 164.066 439.887 166.153 439.389 167.66C439.145 168.413 438.866 169.019 438.635 169.401C438.523 169.594 438.423 169.73 438.362 169.802L438.304 169.867L438.334 169.898L438.306 169.866L438.304 169.867L438.334 169.898L438.306 169.866L438.694 170.304L438.333 169.843L438.306 169.866L438.694 170.304L438.333 169.843C438.253 169.904 438.205 169.93 438.086 169.969C437.971 170.004 437.779 170.041 437.483 170.041C436.87 170.051 435.825 169.843 434.677 169.392C432.945 168.73 431.023 167.587 429.619 166.617C428.915 166.133 428.331 165.695 427.938 165.389C427.741 165.234 427.591 165.114 427.495 165.036L427.396 164.954L427.379 164.939L426.359 166.149L427.384 164.944L427.379 164.939L426.359 166.149L427.384 164.944C425.83 163.62 423.605 163.399 421.821 164.393C420.036 165.388 419.052 167.394 419.358 169.414C419.822 172.464 420.646 175.206 421.826 177.622C423.583 181.244 426.189 184.115 429.291 185.972C432.389 187.841 435.905 188.685 439.396 188.68C443.244 188.677 447.09 187.691 450.713 185.949C456.143 183.328 461.114 178.988 464.786 173.258C468.454 167.532 470.784 160.38 470.781 152.318C470.783 145.833 469.278 138.791 465.9 131.466C461.428 121.748 455.369 114.176 448.658 108.398C438.581 99.72 427.124 95.0541 417.133 92.5275C407.13 90.0045 398.544 89.606 393.969 89.6036C391.815 89.6036 390.551 89.6942 390.445 89.7016C387.745 89.9014 385.718 92.2528 385.918 94.9535C386.117 97.6543 388.468 99.682 391.168 99.4822Z" fill="#F6F2A1"/>
</svg>
