<svg width="364" height="162" viewBox="0 0 364 162" fill="none" xmlns="http://www.w3.org/2000/svg">
<path fill-rule="evenodd" clip-rule="evenodd" d="M293.858 101.066C295.091 101.756 296.452 102.298 297.948 102.706C299.443 103.108 301.066 103.369 302.792 103.372C304.118 103.37 305.51 103.215 306.927 102.786C307.987 102.463 309.064 101.98 310.073 101.287C311.593 100.259 312.926 98.7229 313.759 96.895C314.605 95.0659 314.983 93.0087 314.982 90.8106C314.982 89.9917 314.931 89.1495 314.83 88.279C314.456 85.0622 313.661 82.2229 312.493 79.7673C310.753 76.0822 308.128 73.3042 305.186 71.5695C302.243 69.8237 299.055 69.0894 296.078 69.0894C295.527 69.0894 294.983 69.1139 294.445 69.163C292.674 69.326 290.583 69.7011 288.351 70.4428C286.679 71.0006 284.929 71.7668 283.213 72.8285C280.644 74.4137 278.138 76.7074 276.322 79.8446C274.498 82.9744 273.433 86.8827 273.441 91.3794C273.441 92.2977 273.484 93.2429 273.571 94.2151V94.2138C273.963 98.6223 275.115 102.703 276.955 106.32C279.708 111.751 284.014 116.085 289.269 119.001C294.529 121.929 300.708 123.481 307.373 123.644C307.583 123.649 307.793 123.651 308.002 123.651C312.265 123.645 316.688 122.634 321.033 120.89C327.538 118.259 333.889 113.958 338.805 108.266C341.257 105.418 343.344 102.209 344.829 98.6713C346.315 95.1382 347.189 91.2642 347.189 87.199C347.189 85.5329 347.032 83.6156 346.708 81.4542C346.141 77.6808 345.054 73.1852 343.252 68.4715C340.546 61.4162 336.236 53.8313 329.471 47.8573C326.092 44.8783 322.091 42.3246 317.454 40.5372C312.819 38.7473 307.562 37.731 301.732 37.7335C299.421 37.7335 297.019 37.8916 294.526 38.219L295.165 43.081L299.996 42.2511C299.923 41.871 298.658 34.5583 293.553 25.9767C290.999 21.6921 287.465 17.0911 282.615 12.9817C277.771 8.87238 271.6 5.27546 263.947 3.02831C258.292 1.36348 252.986 0.66592 248.119 0.66592C237.504 0.664694 229.063 3.97352 223.284 7.38041C220.388 9.08692 218.142 10.8167 216.55 12.2204C215.753 12.9253 215.122 13.5432 214.631 14.0728C214.382 14.3401 214.171 14.5804 213.959 14.8464C213.851 14.9837 213.745 15.1222 213.607 15.327C213.539 15.4299 213.461 15.5501 213.363 15.7266C213.265 15.9105 213.141 16.1263 212.982 16.5921L217.632 18.1442L221.727 15.4483C221.473 15.0671 218.912 11.2642 213.357 7.4797C210.584 5.59175 207.059 3.71851 202.747 2.32461C198.436 0.929494 193.341 0.0223083 187.471 0.0223083C184.596 0.0223083 181.536 0.239302 178.289 0.717419C171.235 1.75947 164.331 3.07245 157.796 5.12468C152.896 6.66446 148.199 8.62351 143.842 11.2213C137.309 15.1063 131.558 20.4869 127.284 27.7408C123 34.9935 120.189 44.0189 119.058 55.1909C118.856 57.1818 118.758 59.109 118.758 60.9724C118.751 68.6762 120.462 75.3233 123.4 80.8106C125.598 84.9285 128.466 88.3771 131.688 91.1894C136.53 95.4128 142.141 98.2226 147.711 99.999C153.289 101.773 158.838 102.523 163.742 102.526C166.987 102.523 169.945 102.202 172.542 101.544C179.874 99.6607 187.167 95.8223 192.889 90.2957C195.742 87.5288 198.195 84.3217 199.954 80.688C201.712 77.0617 202.759 72.994 202.757 68.6848C202.757 67.4282 202.668 66.1545 202.488 64.8697C201.248 56.1606 196.801 48.0767 190.55 41.9985C187.416 38.9631 183.809 36.4291 179.848 34.6319C175.891 32.8371 171.566 31.7852 167.086 31.7852C166.263 31.7852 165.434 31.8208 164.602 31.8931C160.761 32.2315 157.201 32.8199 153.947 33.7357C151.508 34.4247 149.237 35.2975 147.163 36.4168C144.06 38.0878 141.364 40.3619 139.487 43.3127C137.601 46.255 136.641 49.7943 136.653 53.5273C136.653 54.6257 136.732 55.745 136.884 56.8851C137.218 59.3946 138.146 61.6933 139.421 63.667C141.343 66.6338 144.009 68.9178 146.972 70.5188C149.943 72.1113 153.241 73.0467 156.629 73.0553C158.404 73.0553 160.209 72.788 161.957 72.1665C164.576 71.2483 167.057 69.4437 168.761 66.8803C170.479 64.3205 171.408 61.1428 171.572 57.5606C171.699 54.855 169.609 52.5588 166.904 52.4325C164.199 52.3062 161.904 54.3965 161.777 57.1009C161.708 58.5683 161.448 59.6533 161.13 60.4355C160.891 61.0239 160.622 61.4481 160.343 61.7816C159.921 62.2756 159.47 62.5968 158.871 62.8493C158.275 63.0958 157.519 63.2478 156.629 63.2478C155.628 63.2502 154.471 63.048 153.321 62.6385C151.59 62.0317 149.9 60.9504 148.703 59.6717C148.1 59.0342 147.616 58.3538 147.266 57.6685C146.917 56.982 146.698 56.293 146.603 55.5869C146.504 54.844 146.459 54.1599 146.459 53.5273C146.466 51.6087 146.851 50.216 147.497 49.0232C147.988 48.1282 148.653 47.3191 149.586 46.5382C150.978 45.3711 153.01 44.2923 155.693 43.4488C158.368 42.6017 161.668 41.9949 165.459 41.6638C166.002 41.616 166.545 41.5927 167.086 41.5927C170.025 41.5927 172.966 42.2805 175.801 43.5653C180.048 45.4839 184.019 48.7719 187.04 52.8027C190.07 56.8287 192.129 61.5658 192.777 66.2317C192.895 67.0703 192.951 67.8867 192.951 68.6848C192.948 71.4187 192.308 73.9711 191.128 76.4156C189.366 80.0726 186.323 83.4611 182.565 86.1864C178.818 88.9141 174.386 90.9565 170.121 92.0402C168.552 92.4436 166.307 92.7219 163.742 92.7182C160.284 92.7206 156.232 92.2315 152.198 91.1048C149.171 90.2626 146.152 89.0661 143.364 87.4846C139.173 85.1051 135.522 81.898 132.889 77.6501C130.264 73.3924 128.574 68.0412 128.563 60.9724C128.563 59.4547 128.644 57.8585 128.813 56.1814C129.725 47.2063 131.779 40.2271 134.622 34.7287C136.759 30.601 139.335 27.2848 142.323 24.5105C146.799 20.3594 152.26 17.4037 158.595 15.1896C164.921 12.978 172.088 11.5425 179.719 10.4207C182.51 10.0088 185.09 9.82984 187.471 9.82984C192.334 9.83107 196.375 10.574 199.732 11.6577C204.759 13.2833 208.274 15.6923 210.524 17.655C211.647 18.6358 212.448 19.5025 212.944 20.091C213.193 20.384 213.365 20.6071 213.463 20.7395L213.555 20.867L213.561 20.8743L215.261 19.7048L213.537 20.84L213.561 20.8743L215.261 19.7048L213.537 20.84C214.568 22.408 216.408 23.2502 218.268 23.0063C220.129 22.7623 221.689 21.4751 222.284 19.695L217.857 18.219L221.938 20.482C222.019 20.33 222.129 20.1412 222.284 19.695L217.857 18.219L221.938 20.482L218.657 18.6627L221.678 20.8927C221.717 20.8351 221.781 20.7591 221.938 20.482L218.657 18.6627L221.678 20.8927L220.28 19.8605L221.644 20.9369L221.678 20.8927L220.28 19.8605L221.644 20.9369L221.641 20.9356L221.644 20.9369L221.641 20.9356L221.644 20.9369C221.687 20.8841 221.948 20.5911 222.336 20.2197C223.716 18.8859 226.768 16.3886 231.134 14.2996C235.513 12.2033 241.198 10.4759 248.119 10.4735C252.054 10.4747 256.401 11.0313 261.181 12.4374C267.498 14.2996 272.39 17.1757 276.277 20.4649C282.098 25.3919 285.655 31.3243 287.731 36.0417C288.768 38.3955 289.434 40.4342 289.831 41.849C290.029 42.5563 290.16 43.108 290.24 43.4648C290.279 43.6425 290.305 43.7725 290.321 43.8485L290.334 43.922L290.336 43.9269L293.182 43.4219L290.333 43.911L290.336 43.9269L293.182 43.4219L290.333 43.911C290.778 46.5063 293.193 48.2864 295.803 47.9431C297.894 47.6685 299.868 47.541 301.732 47.541C308.899 47.5533 314.442 49.3812 319.005 52.2339C322.42 54.3793 325.28 57.1426 327.668 60.2553C331.247 64.9175 333.724 70.3766 335.259 75.349C336.029 77.8328 336.566 80.1915 336.907 82.2401C337.247 84.2837 337.386 86.0331 337.384 87.199C337.381 90.7444 336.386 94.1108 334.602 97.2971C331.942 102.065 327.43 106.324 322.433 109.279C319.941 110.76 317.34 111.919 314.854 112.691C312.368 113.466 309.996 113.847 308.002 113.844C307.87 113.844 307.741 113.842 307.614 113.84C304.081 113.753 300.858 113.178 298.016 112.197C293.747 110.72 290.35 108.365 287.87 105.26C285.397 102.146 283.783 98.2398 283.337 93.3422V93.3397C283.275 92.6458 283.246 91.9936 283.246 91.3794C283.251 88.7008 283.775 86.7895 284.513 85.3049C285.071 84.1905 285.768 83.298 286.585 82.5294C287.807 81.3807 289.337 80.5213 290.923 79.9341C292.5 79.3444 294.122 79.0391 295.335 78.93C295.577 78.9079 295.824 78.8969 296.078 78.8969C296.992 78.8969 297.947 79.049 298.854 79.3775C300.217 79.8777 301.476 80.7162 302.591 82.2143C303.695 83.7149 304.684 85.962 305.09 89.4106C305.151 89.9402 305.177 90.4073 305.177 90.8106C305.177 91.7779 305.029 92.3602 304.906 92.6704C304.811 92.907 304.736 93.0026 304.675 93.0725C304.584 93.1693 304.486 93.2539 304.182 93.3667C303.886 93.4746 303.395 93.5653 302.792 93.5641C302.097 93.5653 301.266 93.4452 300.507 93.238C299.75 93.0357 299.054 92.7402 298.664 92.5171C296.305 91.1894 293.315 92.0267 291.988 94.3879C290.66 96.7478 291.498 99.7379 293.858 101.066Z" fill="#F9DAB6"/>
<path fill-rule="evenodd" clip-rule="evenodd" d="M292.125 33.3189L290.577 30.6328L292.111 33.3262L292.125 33.3189L290.577 30.6328L292.111 33.3262L292.129 33.3164C292.358 33.1877 294.78 31.8649 298.67 30.5936C302.56 29.3199 307.908 28.1049 314.008 28.1074C318.704 28.1086 323.844 28.8172 329.211 30.7616C332.214 31.8478 335.303 33.6793 338.217 36.1324C342.591 39.8041 346.55 44.8623 349.357 50.6046C352.172 56.3482 353.838 62.755 353.834 69.147C353.833 73.6254 353.03 78.0976 351.238 82.4424C349.443 86.7859 346.659 91.019 342.572 95.0119C341.318 96.2354 340.812 98.0424 341.247 99.7391L344.281 98.9607L341.242 99.722L341.247 99.7391L344.281 98.9607L341.242 99.722L341.247 99.7416C341.313 100.013 341.956 102.854 341.955 106.946C341.955 109.869 341.629 113.423 340.58 117.159C339.792 119.964 338.603 122.87 336.834 125.74C334.175 130.042 330.23 134.289 324.144 138.007C318.059 141.718 309.791 144.883 298.561 146.756C294.147 147.492 290.153 147.803 286.548 147.803C274.934 147.791 267.33 144.612 262.549 141.582C260.164 140.062 258.494 138.565 257.454 137.493C256.933 136.958 256.57 136.53 256.355 136.261C256.248 136.126 256.176 136.033 256.142 135.985L256.116 135.949L254.135 137.341L256.142 135.988L256.116 135.949L254.135 137.341L256.142 135.988C255.263 134.683 253.822 133.883 252.249 133.826C250.677 133.771 249.183 134.468 248.213 135.707L250.238 137.29L248.224 135.694L248.213 135.707L250.238 137.29L248.224 135.694C248.224 135.694 248.178 135.752 248.08 135.869C247.347 136.745 243.823 140.711 237.914 144.372C231.989 148.04 223.77 151.411 213.298 151.415C210.498 151.415 207.529 151.174 204.385 150.622C196.85 149.303 190.749 147.589 185.853 145.551C182.179 144.023 179.186 142.319 176.722 140.464C173.032 137.672 170.497 134.569 168.586 130.903C166.685 127.239 165.439 122.962 164.643 117.974C164.471 116.889 164.396 115.896 164.395 114.985C164.4 112.784 164.822 111.061 165.494 109.556C166.001 108.43 166.663 107.422 167.461 106.49C168.655 105.095 170.166 103.877 171.798 102.837C173.426 101.796 175.161 100.941 176.757 100.22C177.027 100.095 177.548 99.9243 178.22 99.8054C178.892 99.684 179.714 99.6092 180.615 99.6092C182.203 99.608 184.032 99.8433 185.802 100.357C188.471 101.127 190.951 102.506 192.689 104.442C193.565 105.415 194.281 106.53 194.814 107.881C195.344 109.232 195.693 110.83 195.743 112.797C195.748 112.994 195.751 113.189 195.751 113.379C195.749 115.798 195.363 117.548 194.852 118.823C194.466 119.781 194.01 120.483 193.525 121.042C192.797 121.874 191.972 122.407 191.129 122.755C190.295 123.102 189.434 123.229 188.924 123.225L188.726 123.218C187.775 123.16 186.833 123.03 186.025 122.838C185.418 122.696 184.89 122.518 184.492 122.338C183.882 122.068 183.617 121.805 183.585 121.755L183.572 121.739L183.494 121.783L183.577 121.75L183.572 121.739L183.494 121.783L183.577 121.75L183.533 121.767L183.58 121.753L183.577 121.75L183.533 121.767L183.58 121.753C183.58 121.752 183.569 121.723 183.568 121.612C183.568 121.531 183.575 121.414 183.604 121.248V121.246C183.804 120.095 184.158 119.641 184.182 119.629L184.183 119.628L183.712 119.147L183.967 119.758C184.096 119.705 184.179 119.634 184.183 119.628L183.712 119.147L183.967 119.758L183.563 118.788V119.841C183.675 119.842 183.84 119.813 183.967 119.758L183.563 118.788V119.841V119.164L183.431 119.83L183.563 119.841V119.164L183.431 119.83L183.463 119.667L183.411 119.825L183.431 119.83L183.463 119.667L183.411 119.825C183.423 119.829 183.55 119.878 183.755 120.041C185.869 121.733 188.954 121.389 190.646 119.275C192.337 117.16 191.994 114.074 189.88 112.382C189.003 111.681 188.033 111.1 186.971 110.686C185.911 110.274 184.753 110.032 183.563 110.033C182.348 110.031 181.105 110.29 179.974 110.8C178.267 111.563 176.867 112.865 175.888 114.383C174.9 115.908 174.284 117.646 173.949 119.542V119.539C173.827 120.228 173.762 120.922 173.762 121.612C173.746 123.649 174.381 125.691 175.471 127.263C176.28 128.451 177.287 129.378 178.333 130.093C179.909 131.166 181.573 131.805 183.222 132.245C184.872 132.68 186.524 132.906 188.117 133.008C188.384 133.023 188.652 133.032 188.924 133.032C190.54 133.028 192.304 132.754 194.152 132.097C195.535 131.601 196.958 130.883 198.32 129.88C200.363 128.382 202.245 126.217 203.54 123.427C204.842 120.639 205.558 117.279 205.556 113.379C205.556 113.107 205.552 112.831 205.545 112.553C205.45 108.536 204.477 104.937 202.84 101.927C201.615 99.6693 200.034 97.7531 198.269 96.1864C195.617 93.8338 192.577 92.256 189.541 91.2507C186.498 90.2467 183.449 89.8054 180.615 89.8017C179.183 89.8029 177.806 89.9169 176.491 90.1511C175.174 90.3889 173.923 90.7408 172.718 91.2826C169.504 92.7489 165.155 94.9053 161.389 98.6309C159.513 100.496 157.79 102.779 156.553 105.53C155.313 108.275 154.586 111.471 154.591 114.985C154.591 116.443 154.712 117.954 154.961 119.518C155.768 124.573 157.028 129.344 159.078 133.776C160.611 137.096 162.595 140.216 165.107 143.044C168.873 147.295 173.797 150.847 179.979 153.684C186.167 156.526 193.623 158.691 202.693 160.282C206.39 160.931 209.931 161.223 213.298 161.223C220.131 161.223 226.237 160.017 231.506 158.209C239.418 155.494 245.447 151.449 249.531 148.072C253.617 144.69 255.771 141.959 255.939 141.747L252.077 138.728L248.01 141.467C248.289 141.878 251.078 145.897 257.281 149.853C263.47 153.813 273.103 157.624 286.548 157.611C290.719 157.611 295.255 157.251 300.173 156.43C311.037 154.618 319.751 151.628 326.718 147.839C331.94 144.998 336.172 141.706 339.542 138.175C344.602 132.881 347.692 127.073 349.471 121.616C351.255 116.153 351.759 111.042 351.76 106.946C351.757 101.328 350.815 97.5913 350.744 97.3044L345.996 98.5218L349.419 102.032C354.408 97.1671 357.995 91.7803 360.302 86.1851C362.612 80.5899 363.642 74.8047 363.639 69.147C363.63 58.3563 359.961 48.0571 354.338 39.6545C351.519 35.452 348.2 31.7141 344.526 28.6247C340.853 25.5378 336.823 23.0909 332.551 21.54C326.007 19.1678 319.693 18.2999 314.008 18.2999C306.251 18.3023 299.655 19.8985 294.956 21.4934C290.257 23.0933 287.442 24.6993 287.228 24.8219C284.882 26.1741 284.077 29.1727 285.429 31.5192C286.781 33.8657 289.779 34.6711 292.125 33.3189Z" fill="#F9DAB6"/>
<path fill-rule="evenodd" clip-rule="evenodd" d="M127.321 50.4306C127.127 50.2663 123.752 47.3461 118.22 44.3867C115.452 42.9094 112.14 41.4211 108.396 40.2908C104.653 39.1617 100.47 38.3882 95.9949 38.3882C91.525 38.3857 86.7584 39.1715 81.982 41.122C77.2044 43.0688 72.4403 46.1717 67.9226 50.6488C64.2088 54.3217 61.6338 58.2778 60.0159 62.1972C58.3944 66.1177 57.7263 69.9856 57.7263 73.5077C57.7275 76.0552 58.072 78.425 58.6701 80.5507C59.2731 82.6777 60.1139 84.5608 61.2243 86.1827L61.2231 86.1802C62.2331 87.6501 63.3619 89.0048 64.7162 90.1768C65.7298 91.0534 66.866 91.8147 68.0904 92.4215C69.9338 93.3373 71.9378 93.8963 74.0888 94.2261C76.246 94.5571 78.5747 94.6736 81.2429 94.6748C81.7185 94.6748 82.2026 94.6711 82.699 94.6638C85.2349 94.6331 87.6188 93.9392 89.6056 92.8052C91.1009 91.9581 92.3792 90.8817 93.448 89.6938C95.0524 87.9076 96.2008 85.8762 96.9889 83.7933C97.7733 81.7056 98.2036 79.5602 98.2697 77.4381C98.2759 77.2088 98.2795 76.982 98.2795 76.7577C98.2783 74.8231 98.0295 72.9903 97.402 71.2618C96.9325 69.9708 96.2339 68.7474 95.3245 67.7102C93.9603 66.1423 92.1684 65.0818 90.3741 64.497C88.5675 63.9024 86.7375 63.7063 84.8782 63.7038C83.5888 63.7038 82.3289 63.8436 81.1093 64.1317C79.2868 64.5743 77.5231 65.3184 75.9628 66.6902C75.1895 67.378 74.4749 68.2435 73.9552 69.2978C73.4331 70.3448 73.1316 71.5805 73.1353 72.8089C73.134 74.3585 73.5887 75.8357 74.2824 77.1058C74.9798 78.3845 75.9077 79.5013 77.023 80.5495C78.9988 82.4019 82.1009 82.3014 83.9529 80.3251C85.8048 78.3502 85.7043 75.2461 83.7286 73.3937C83.1979 72.8984 82.9564 72.5368 82.8976 72.4227L82.8779 72.3835L81.8423 72.8089H82.9405C82.9417 72.5564 82.8816 72.3884 82.8779 72.3835L81.8423 72.8089H82.9405H81.1302L82.6329 73.835C82.7861 73.6339 82.9527 73.1718 82.9405 72.8089H81.1302L82.6329 73.835L81.7308 73.2184L82.5041 73.9944L82.6329 73.835L81.7308 73.2184L82.5041 73.9944L82.1683 73.6573L82.4784 74.0189L82.5041 73.9944L82.1683 73.6573L82.4784 74.0189L82.4539 73.9895L82.476 74.0201L82.4784 74.0189L82.4539 73.9895L82.476 74.0201C82.4968 73.9993 82.7566 73.8399 83.1918 73.721C83.6244 73.5984 84.2213 73.5102 84.8782 73.5114C85.8808 73.5089 86.6444 73.618 87.1224 73.7554C87.4852 73.8571 87.6837 73.965 87.7928 74.0385C87.9473 74.1599 87.9816 74.166 88.1409 74.4995C88.2855 74.8256 88.4755 75.5427 88.4743 76.7577C88.4743 76.8839 88.4719 77.0139 88.4682 77.1475C88.4449 77.9934 88.2709 79.0024 87.9436 79.9697C87.4583 81.4322 86.6272 82.7648 85.7117 83.5862C85.252 84.0017 84.7814 84.3046 84.2801 84.513C83.7764 84.7202 83.2383 84.8452 82.5556 84.8575C82.1009 84.8648 81.6633 84.8672 81.2429 84.8685C79.1385 84.8685 77.4275 84.779 76.0719 84.6025C75.0546 84.4713 74.2396 84.2935 73.5839 84.0863C72.5972 83.77 71.9685 83.4243 71.3372 82.9303C70.7134 82.4325 70.0638 81.7301 69.3039 80.6255L69.3026 80.6231C68.9276 80.0861 68.4508 79.1213 68.1076 77.8904C67.7608 76.6584 67.5315 75.1602 67.5315 73.5077C67.5328 71.2176 67.963 68.6395 69.0759 65.9461C70.1924 63.2515 71.9893 60.4257 74.8205 57.6195C78.5159 53.9637 82.1585 51.6455 85.6847 50.2038C89.2146 48.767 92.6538 48.1981 95.9949 48.1957C99.3324 48.1945 102.571 48.7768 105.564 49.6803C110.051 51.0313 113.97 53.1142 116.716 54.8501C118.089 55.7168 119.17 56.4941 119.889 57.0396C120.248 57.313 120.518 57.5276 120.687 57.6661L120.867 57.8156L120.9 57.8426L120.901 57.8438L122.888 55.5378L120.893 57.8365L120.901 57.8438L122.888 55.5378L120.893 57.8365C122.937 59.6129 126.034 59.3934 127.809 57.3486C129.584 55.3037 129.366 52.2057 127.321 50.4306Z" fill="#F9DAB6"/>
<path fill-rule="evenodd" clip-rule="evenodd" d="M62.9904 68.8638C62.885 68.8564 61.8848 68.7853 60.1995 68.7853C55.4219 68.7939 45.1264 69.3248 34.0134 73.6523C28.4625 75.821 22.7043 78.9594 17.4316 83.504C12.16 88.0412 7.39593 93.9968 3.89056 101.615C1.23334 107.378 0.0334448 112.956 0.0358924 118.115C0.0358924 122.388 0.857055 126.359 2.27759 129.881C4.41145 135.168 7.85801 139.436 11.8855 142.426C15.9167 145.405 20.5558 147.179 25.2893 147.194C27.1988 147.195 29.1243 146.891 30.9665 146.223C33.7303 145.233 36.2747 143.375 38.1475 140.818C40.0326 138.262 41.2558 135.081 41.8098 131.424C42.1163 129.403 41.132 127.396 39.3463 126.402C37.5617 125.408 35.3384 125.629 33.783 126.954L34.7819 128.127L33.7904 126.948L33.783 126.954L34.7819 128.127L33.7904 126.948C33.7536 126.982 32.4691 128.045 30.8684 128.996C30.073 129.473 29.1991 129.918 28.4331 130.205C27.6695 130.499 27.0211 130.608 26.76 130.6L26.6313 130.592L26.6178 130.591L26.5921 130.717L26.6313 130.595L26.6178 130.591L26.5921 130.717L26.6313 130.595L26.4646 131.123L26.8066 130.689L26.6313 130.595L26.4646 131.123L26.8066 130.689L25.9523 131.778L26.9267 130.795L26.8078 130.689L25.9523 131.778L26.9267 130.795L26.5835 131.142L26.9586 130.827L26.9267 130.795L26.5835 131.142L26.9586 130.827C26.9549 130.827 26.8311 130.661 26.6926 130.368C26.4806 129.929 26.233 129.213 26.0602 128.353C25.8849 127.492 25.7771 126.484 25.7783 125.429C25.7771 124.026 25.967 122.54 26.3788 121.15C26.6865 120.106 27.1167 119.115 27.6719 118.217C28.5103 116.868 29.6036 115.721 31.1638 114.786C32.7265 113.86 34.8052 113.129 37.7051 112.876C38.7604 112.784 39.7593 112.741 40.7067 112.741C43.7304 112.744 46.2197 113.171 48.4553 113.904C50.4102 114.55 52.185 115.439 53.934 116.576C56.9883 118.557 59.9507 121.349 63.2342 124.688C68.1638 129.683 73.7944 135.864 81.8335 141.584C89.8713 147.311 100.312 152.5 114.669 155.734C119.138 156.742 124.082 157.228 129.187 157.231C137.353 157.224 145.912 155.988 153.439 153.304C157.201 151.957 160.714 150.242 163.779 148.04C166.836 145.842 169.473 143.128 171.25 139.788C172.521 137.398 171.613 134.428 169.223 133.157C166.831 131.886 163.863 132.793 162.592 135.185C161.69 136.886 160.183 138.548 158.057 140.076C154.881 142.372 150.352 144.278 145.266 145.529C140.181 146.791 134.55 147.425 129.187 147.423C124.719 147.425 120.432 146.983 116.828 146.168C105.348 143.569 97.001 139.762 90.3629 135.515C85.3855 132.323 81.3604 128.868 77.7313 125.38C75.0103 122.765 72.5149 120.131 70.0097 117.593C66.253 113.798 62.4621 110.168 57.7445 107.406C55.3913 106.032 52.8089 104.895 49.9715 104.122C47.1341 103.346 44.0515 102.934 40.7067 102.934C39.4639 102.934 38.1831 102.99 36.8631 103.104C33.1727 103.421 29.9186 104.349 27.1596 105.794C23.0059 107.953 20.0888 111.279 18.3668 114.801C16.6288 118.335 15.9767 122.038 15.9731 125.429C15.9767 128.02 16.3506 130.439 17.0529 132.601C17.4083 133.682 17.8446 134.703 18.4182 135.671C18.998 136.636 19.7015 137.569 20.7482 138.402C21.6687 139.126 22.7105 139.651 23.7449 139.967C24.7806 140.286 25.804 140.407 26.76 140.407C28.7652 140.399 30.4958 139.914 32.0389 139.326C34.3456 138.429 36.2724 137.233 37.7076 136.254C39.1355 135.273 40.0473 134.499 40.1417 134.42L36.9624 130.687L32.1149 129.951C31.8722 131.547 31.469 132.797 31.0008 133.757C30.2875 135.196 29.4798 135.998 28.5838 136.547C27.6842 137.085 26.6154 137.383 25.2893 137.387C23.843 137.39 22.1148 136.997 20.3548 136.147C17.7098 134.878 15.0354 132.598 13.0805 129.533C11.1219 126.462 9.8448 122.643 9.84112 118.115C9.84357 114.47 10.6733 110.332 12.7961 105.72C15.7144 99.3946 19.5483 94.6319 23.832 90.9332C30.2483 85.3981 37.7664 82.2805 44.5222 80.5765C51.267 78.8687 57.1991 78.5904 60.1995 78.5929C60.9043 78.5929 61.4485 78.6076 61.8027 78.6211C61.9792 78.6284 62.1091 78.6358 62.1875 78.6395L62.2672 78.6444C64.9673 78.8442 67.3193 76.8165 67.5179 74.1157C67.7177 71.415 65.6905 69.0636 62.9904 68.8638Z" fill="#F9DAB6"/>
</svg>
